<svg width="225" height="225" version="1.1" xmlns="http://www.w3.org/2000/svg" desc="Created with imagetracer.js version 1.2.6" ><path fill="rgb(246,242,240)" stroke="rgb(246,242,240)" stroke-width="1" opacity="1" d="M 82.5 12 L 83 13.5 Q 81.5 16.5 80 13.5 L 82 13.5 L 82.5 12 Z " /><path fill="rgb(246,242,240)" stroke="rgb(246,242,240)" stroke-width="1" opacity="1" d="M 87.5 13 L 88.5 15 L 87.5 13 Z " /><path fill="rgb(246,242,240)" stroke="rgb(246,242,240)" stroke-width="1" opacity="1" d="M 69.5 28 L 68.5 30 L 69.5 28 Z " /><path fill="rgb(246,242,240)" stroke="rgb(246,242,240)" stroke-width="1" opacity="1" d="M 66.5 36 L 67.5 38 L 66.5 36 Z " /><path fill="rgb(246,242,240)" stroke="rgb(246,242,240)" stroke-width="1" opacity="1" d="M 82.5 38 L 83.5 40 L 82.5 38 Z " /><path fill="rgb(246,242,240)" stroke="rgb(246,242,240)" stroke-width="1" opacity="1" d="M 130.5 79 L 133 79.5 L 130.5 80 L 130.5 79 Z " /><path fill="rgb(246,242,240)" stroke="rgb(246,242,240)" stroke-width="1" opacity="1" d="M 127.5 80 L 131 82.5 L 129.5 82 L 127.5 80 Z " /><path fill="rgb(246,242,240)" stroke="rgb(246,242,240)" stroke-width="1" opacity="1" d="M 124.5 81 Q 126.8 81.8 126 85.5 L 124 86.5 L 125 82.5 L 122 83.5 Q 121.3 81.3 123.5 82 L 124.5 81 Z " /><path fill="rgb(246,242,240)" stroke="rgb(246,242,240)" stroke-width="1" opacity="1" d="M 133.5 81 L 134.5 83 L 133.5 81 Z " /><path fill="rgb(246,242,240)" stroke="rgb(246,242,240)" stroke-width="1" opacity="1" d="M 100.5 83 L 101.5 85 L 100.5 83 Z " /><path fill="rgb(246,242,240)" stroke="rgb(246,242,240)" stroke-width="1" opacity="1" d="M 117.5 83 L 118 85.5 L 117 85.5 L 117.5 83 Z " /><path fill="rgb(246,242,240)" stroke="rgb(246,242,240)" stroke-width="1" opacity="1" d="M 130.5 84 L 129.5 86 L 128 85.5 L 130.5 84 Z " /><path fill="rgb(246,242,240)" stroke="rgb(246,242,240)" stroke-width="1" opacity="1" d="M 112.5 85 L 113.5 87 Q 111.3 86.3 112 88.5 L 110 89.5 L 112.5 85 Z " /><path fill="rgb(246,242,240)" stroke="rgb(246,242,240)" stroke-width="1" opacity="1" d="M 132.5 86 L 134 86.5 L 131.5 88 L 132.5 86 Z " /><path fill="rgb(246,242,240)" stroke="rgb(246,242,240)" stroke-width="1" opacity="1" d="M 135.5 90 L 136.5 92 L 135.5 90 Z " /><path fill="rgb(246,242,240)" stroke="rgb(246,242,240)" stroke-width="1" opacity="1" d="M 98.5 91 L 102 92.5 L 99.5 93 L 97 92.5 L 98.5 91 Z " /><path fill="rgb(246,242,240)" stroke="rgb(246,242,240)" stroke-width="1" opacity="1" d="M 116.5 92 L 117.5 94 L 116.5 92 Z " /><path fill="rgb(246,242,240)" stroke="rgb(246,242,240)" stroke-width="1" opacity="1" d="M 129.5 92 L 129 93.5 L 128.5 98 L 128 93.5 L 129.5 92 Z " /><path fill="rgb(246,242,240)" stroke="rgb(246,242,240)" stroke-width="1" opacity="1" d="M 131.5 92 L 135 94.5 L 133.5 95 L 131.5 92 Z " /><path fill="rgb(246,242,240)" stroke="rgb(246,242,240)" stroke-width="1" opacity="1" d="M 119.5 94 L 120.5 96 L 119.5 94 Z " /><path fill="rgb(246,242,240)" stroke="rgb(246,242,240)" stroke-width="1" opacity="1" d="M 117.5 97 L 116.5 99 L 117.5 97 Z " /><path fill="rgb(246,242,240)" stroke="rgb(246,242,240)" stroke-width="1" opacity="1" d="M 120.5 99 L 119.5 101 L 120.5 99 Z " /><path fill="rgb(246,242,240)" stroke="rgb(246,242,240)" stroke-width="1" opacity="1" d="M 74.5 100 L 75 104.5 L 74 104.5 L 74.5 100 Z " /><path fill="rgb(246,242,240)" stroke="rgb(246,242,240)" stroke-width="1" opacity="1" d="M 156.5 118 L 155.5 120 L 156.5 118 Z " /><path fill="rgb(246,242,240)" stroke="rgb(246,242,240)" stroke-width="1" opacity="1" d="M 110.5 127 L 113 127.5 L 110.5 128 L 110.5 127 Z " /><path fill="rgb(246,242,240)" stroke="rgb(246,242,240)" stroke-width="1" opacity="1" d="M 117.5 127 L 120 127.5 L 117.5 128 L 117.5 127 Z " /><path fill="rgb(246,242,240)" stroke="rgb(246,242,240)" stroke-width="1" opacity="1" d="M 136.5 129 L 138.5 132 L 136.5 129 Z " /><path fill="rgb(246,242,240)" stroke="rgb(246,242,240)" stroke-width="1" opacity="1" d="M 151.5 133 L 152 136.5 L 151 136.5 L 151.5 133 Z " /><path fill="rgb(246,242,240)" stroke="rgb(246,242,240)" stroke-width="1" opacity="1" d="M 143.5 144 L 144 146.5 L 143 146.5 L 143.5 144 Z " /><path fill="rgb(246,242,240)" stroke="rgb(246,242,240)" stroke-width="1" opacity="1" d="M 147.5 158 L 146.5 160 L 147.5 158 Z " /><path fill="rgb(246,242,240)" stroke="rgb(246,242,240)" stroke-width="1" opacity="1" d="M 142.5 160 L 145 160.5 L 142.5 161 L 142.5 160 Z " /><path fill="rgb(246,242,240)" stroke="rgb(246,242,240)" stroke-width="1" opacity="1" d="M 54.5 161 L 56 161.5 L 53.5 163 L 54.5 161 Z " /><path fill="rgb(246,242,240)" stroke="rgb(246,242,240)" stroke-width="1" opacity="1" d="M 151.5 162 L 150.5 164 L 151.5 162 Z " /><path fill="rgb(246,242,240)" stroke="rgb(246,242,240)" stroke-width="1" opacity="1" d="M 158.5 162 L 157.5 164 L 158.5 162 Z " /><path fill="rgb(246,242,240)" stroke="rgb(246,242,240)" stroke-width="1" opacity="1" d="M 82.5 164 Q 86.3 163.3 87 165.5 Q 85.5 170.8 90 169 L 90 173.5 L 91 177.5 L 90 177.5 L 89 170 L 86 168.5 Q 87.8 163.3 82.5 165 L 82.5 164 Z " /><path fill="rgb(246,242,240)" stroke="rgb(246,242,240)" stroke-width="1" opacity="1" d="M 67.5 169 Q 71.3 168.3 72 170.5 L 70.5 170 Q 66.5 170.8 67.5 169 Z " /><path fill="rgb(246,242,240)" stroke="rgb(246,242,240)" stroke-width="1" opacity="1" d="M 79 169 L 82 169.5 L 80 170 L 79.5 174 L 79 169 Z " /><path fill="rgb(246,242,240)" stroke="rgb(246,242,240)" stroke-width="1" opacity="1" d="M 129.5 169 L 133 169.5 L 129.5 170 L 129.5 169 Z " /><path fill="rgb(246,242,240)" stroke="rgb(246,242,240)" stroke-width="1" opacity="1" d="M 135.5 169 L 139 170.5 L 137.5 170 L 135 170.5 L 135 182.5 L 134 182.5 L 134 170.5 L 135.5 169 Z " /><path fill="rgb(246,242,240)" stroke="rgb(246,242,240)" stroke-width="1" opacity="1" d="M 151.5 169 L 155 169.5 L 151 170 L 150.5 183 L 150 170.5 L 151.5 169 Z " /><path fill="rgb(246,242,240)" stroke="rgb(246,242,240)" stroke-width="1" opacity="1" d="M 168.5 169 L 172 170.5 L 171.5 183 L 171 170 L 167.5 171 L 168.5 169 Z " /><path fill="rgb(246,242,240)" stroke="rgb(246,242,240)" stroke-width="1" opacity="1" d="M 93.5 170 L 91.5 173 L 93.5 170 Z " /><path fill="rgb(246,242,240)" stroke="rgb(246,242,240)" stroke-width="1" opacity="1" d="M 120.5 170 L 119.5 172 L 120.5 170 Z " /><path fill="rgb(246,242,240)" stroke="rgb(246,242,240)" stroke-width="1" opacity="1" d="M 159.5 170 L 157.5 173 L 159.5 170 Z " /><path fill="rgb(246,242,240)" stroke="rgb(246,242,240)" stroke-width="1" opacity="1" d="M 53.5 173 L 56 174.5 L 53 175 L 53.5 173 Z " /><path fill="rgb(246,242,240)" stroke="rgb(246,242,240)" stroke-width="1" opacity="1" d="M 73.5 173 L 77 173.5 L 73.5 174 L 73.5 173 Z " /><path fill="rgb(246,242,240)" stroke="rgb(246,242,240)" stroke-width="1" opacity="1" d="M 96.5 173 L 95.5 175 L 96.5 173 Z " /><path fill="rgb(246,242,240)" stroke="rgb(246,242,240)" stroke-width="1" opacity="1" d="M 113.5 173 L 112.5 175 L 113.5 173 Z " /><path fill="rgb(246,242,240)" stroke="rgb(246,242,240)" stroke-width="1" opacity="1" d="M 140.5 173 L 143 173.5 L 139.5 175 L 140.5 173 Z " /><path fill="rgb(246,242,240)" stroke="rgb(246,242,240)" stroke-width="1" opacity="1" d="M 163.5 173 L 167 174.5 L 165.5 174 Q 162.5 174.5 163.5 173 Z " /><path fill="rgb(246,242,240)" stroke="rgb(246,242,240)" stroke-width="1" opacity="1" d="M 180.5 173 L 179.5 175 L 180.5 173 Z " /><path fill="rgb(246,242,240)" stroke="rgb(246,242,240)" stroke-width="1" opacity="1" d="M 86.5 174 L 87 182.5 L 86 182.5 L 86.5 174 Z " /><path fill="rgb(246,242,240)" stroke="rgb(246,242,240)" stroke-width="1" opacity="1" d="M 117.5 175 L 118 176.5 L 116 177.5 L 117.5 175 Z " /><path fill="rgb(246,242,240)" stroke="rgb(246,242,240)" stroke-width="1" opacity="1" d="M 144.5 175 L 145 182.5 L 144 182.5 L 144.5 175 Z " /><path fill="rgb(246,242,240)" stroke="rgb(246,242,240)" stroke-width="1" opacity="1" d="M 156.5 175 L 157 177.5 L 156 177.5 L 156.5 175 Z " /><path fill="rgb(246,242,240)" stroke="rgb(246,242,240)" stroke-width="1" opacity="1" d="M 109.5 177 L 108.5 179 L 106 180.5 L 105.5 182 L 105 180.5 L 109.5 177 Z " /><path fill="rgb(246,242,240)" stroke="rgb(246,242,240)" stroke-width="1" opacity="1" d="M 102.5 181 L 101.5 183 L 102.5 181 Z " /><path fill="rgb(246,242,240)" stroke="rgb(246,242,240)" stroke-width="1" opacity="1" d="M 173.5 181 L 174.5 183 L 173.5 181 Z " /><path fill="rgb(246,242,240)" stroke="rgb(246,242,240)" stroke-width="1" opacity="1" d="M 183.5 181 L 182.5 183 L 183.5 181 Z " /><path fill="rgb(246,242,240)" stroke="rgb(246,242,240)" stroke-width="1" opacity="1" d="M 96.5 183 L 99 183.5 L 96.5 184 L 96.5 183 Z " /><path fill="rgb(246,242,240)" stroke="rgb(246,242,240)" stroke-width="1" opacity="1" d="M 110.5 183 L 113 183.5 L 110.5 184 L 110.5 183 Z " /><path fill="rgb(246,242,240)" stroke="rgb(246,242,240)" stroke-width="1" opacity="1" d="M 123.5 183 L 127 183.5 L 123.5 184 L 123.5 183 Z " /><path fill="rgb(246,242,240)" stroke="rgb(246,242,240)" stroke-width="1" opacity="1" d="M 162.5 183 L 166 183.5 L 162.5 184 L 162.5 183 Z " /><path fill="rgb(246,242,240)" stroke="rgb(246,242,240)" stroke-width="1" opacity="1" d="M 177.5 183 L 181 183.5 L 177.5 184 L 177.5 183 Z " /><path fill="rgb(246,242,240)" stroke="rgb(246,242,240)" stroke-width="1" opacity="1" d="M 76 187 L 81 187.5 L 81 210.5 L 80 210.5 L 80 188.5 L 77 188 L 76.5 198 L 76 187 Z " /><path fill="rgb(246,242,240)" stroke="rgb(246,242,240)" stroke-width="1" opacity="1" d="M 159.5 187 L 160.5 189 L 159.5 187 Z " /><path fill="rgb(246,242,240)" stroke="rgb(246,242,240)" stroke-width="1" opacity="1" d="M 118.5 189 L 120.5 192 L 118.5 189 Z " /><path fill="rgb(246,242,240)" stroke="rgb(246,242,240)" stroke-width="1" opacity="1" d="M 155.5 189 L 154.5 193 Q 151 191 155.5 189 Z " /><path fill="rgb(246,242,240)" stroke="rgb(246,242,240)" stroke-width="1" opacity="1" d="M 113.5 193 L 117 194.5 L 115.5 194 Q 111.8 192.8 113 196.5 L 112 196.5 L 113.5 193 Z " /><path fill="rgb(246,242,240)" stroke="rgb(246,242,240)" stroke-width="1" opacity="1" d="M 121.5 194 L 122 196.5 L 121 196.5 L 121.5 194 Z " /><path fill="rgb(246,242,240)" stroke="rgb(246,242,240)" stroke-width="1" opacity="1" d="M 69.5 196 L 74 196.5 L 69.5 197 L 69.5 196 Z " /><path fill="rgb(246,242,240)" stroke="rgb(246,242,240)" stroke-width="1" opacity="1" d="M 138.5 196 L 143 197.5 L 141.5 198 L 138.5 197 L 138.5 196 Z " /><path fill="rgb(246,242,240)" stroke="rgb(246,242,240)" stroke-width="1" opacity="1" d="M 144.5 196 L 149.5 197 L 153.5 196 L 153.5 197 L 150 197 L 150 204.5 L 149 204.5 Q 150.5 198.5 147.5 197 Q 143.5 197.7 144.5 196 Z " /><path fill="rgb(246,242,240)" stroke="rgb(246,242,240)" stroke-width="1" opacity="1" d="M 159.5 196 Q 163.3 195.3 164 197.5 L 163.5 206 L 163 197 Q 158.6 198 159.5 196 Z " /><path fill="rgb(246,242,240)" stroke="rgb(246,242,240)" stroke-width="1" opacity="1" d="M 93.5 197 L 95.5 200 L 93.5 197 Z " /><path fill="rgb(246,242,240)" stroke="rgb(246,242,240)" stroke-width="1" opacity="1" d="M 125.5 197 L 123.5 200 L 125.5 197 Z " /><path fill="rgb(246,242,240)" stroke="rgb(246,242,240)" stroke-width="1" opacity="1" d="M 133.5 197 L 135.5 200 L 133.5 197 Z " /><path fill="rgb(246,242,240)" stroke="rgb(246,242,240)" stroke-width="1" opacity="1" d="M 147.5 199 L 146.5 201 L 144 200.5 L 147.5 199 Z " /><path fill="rgb(246,242,240)" stroke="rgb(246,242,240)" stroke-width="1" opacity="1" d="M 71.5 200 L 74 200.5 L 71.5 201 L 71.5 200 Z " /><path fill="rgb(246,242,240)" stroke="rgb(246,242,240)" stroke-width="1" opacity="1" d="M 88.5 200 L 91 200.5 L 88.5 201 L 88.5 200 Z " /><path fill="rgb(246,242,240)" stroke="rgb(246,242,240)" stroke-width="1" opacity="1" d="M 128.5 200 L 131 200.5 L 127.5 202 L 128.5 200 Z " /><path fill="rgb(246,242,240)" stroke="rgb(246,242,240)" stroke-width="1" opacity="1" d="M 96.5 201 L 97 204.5 L 96 204.5 L 96.5 201 Z " /><path fill="rgb(246,242,240)" stroke="rgb(246,242,240)" stroke-width="1" opacity="1" d="M 122.5 201 L 123 205.5 L 122 205.5 L 122.5 201 Z " /><path fill="rgb(246,242,240)" stroke="rgb(246,242,240)" stroke-width="1" opacity="1" d="M 136.5 201 L 137 204.5 L 136 204.5 L 136.5 201 Z " /><path fill="rgb(246,242,240)" stroke="rgb(246,242,240)" stroke-width="1" opacity="1" d="M 69.5 202 L 70 204.5 L 69 204.5 L 69.5 202 Z " /><path fill="rgb(246,242,240)" stroke="rgb(246,242,240)" stroke-width="1" opacity="1" d="M 75.5 202 L 76 204.5 L 75 204.5 L 75.5 202 Z " /><path fill="rgb(246,242,240)" stroke="rgb(246,242,240)" stroke-width="1" opacity="1" d="M 112.5 202 L 113 209.5 L 112 209.5 L 112.5 202 Z " /><path fill="rgb(246,242,240)" stroke="rgb(246,242,240)" stroke-width="1" opacity="1" d="M 142.5 202 L 143 209.5 L 140.5 211 L 140.5 210 L 142 209.5 L 142.5 202 Z " /><path fill="rgb(246,242,240)" stroke="rgb(246,242,240)" stroke-width="1" opacity="1" d="M 87.5 205 L 91 206.5 L 88.5 207 L 87.5 205 Z " /><path fill="rgb(246,242,240)" stroke="rgb(246,242,240)" stroke-width="1" opacity="1" d="M 127.5 205 L 131 206.5 L 128.5 207 L 127.5 205 Z " /><path fill="rgb(246,242,240)" stroke="rgb(246,242,240)" stroke-width="1" opacity="1" d="M 83.5 207 L 85.5 210 L 83.5 207 Z " /><path fill="rgb(246,242,240)" stroke="rgb(246,242,240)" stroke-width="1" opacity="1" d="M 123.5 207 L 125.5 210 L 123.5 207 Z " /><path fill="rgb(246,242,240)" stroke="rgb(246,242,240)" stroke-width="1" opacity="1" d="M 134.5 207 L 135 208.5 L 133 209.5 L 134.5 207 Z " /><path fill="rgb(246,242,240)" stroke="rgb(246,242,240)" stroke-width="1" opacity="1" d="M 161.5 208 L 160.5 210 L 161.5 208 Z " /><path fill="rgb(246,242,240)" stroke="rgb(246,242,240)" stroke-width="1" opacity="1" d="M 69.5 210 L 74 210.5 L 69.5 211 L 69.5 210 Z " /><path fill="rgb(246,242,240)" stroke="rgb(246,242,240)" stroke-width="1" opacity="1" d="M 87.5 210 L 91 210.5 L 87.5 211 L 87.5 210 Z " /><path fill="rgb(246,242,240)" stroke="rgb(246,242,240)" stroke-width="1" opacity="1" d="M 108.5 210 L 111 210.5 L 108.5 211 L 108.5 210 Z " /><path fill="rgb(246,242,240)" stroke="rgb(246,242,240)" stroke-width="1" opacity="1" d="M 127.5 210 L 132 210.5 L 127.5 211 L 127.5 210 Z " /><path fill="rgb(246,242,240)" stroke="rgb(246,242,240)" stroke-width="1" opacity="1" d="M 155.5 210 L 159 210.5 L 155.5 211 L 155.5 210 Z " /><path fill="rgb(68,107,132)" stroke="rgb(68,107,132)" stroke-width="1" opacity="1" d="M 84.5 10 L 83.5 12 L 84.5 10 Z " /><path fill="rgb(68,107,132)" stroke="rgb(68,107,132)" stroke-width="1" opacity="1" d="M 70.5 28 L 68.5 31 L 70.5 28 Z " /><path fill="rgb(68,107,132)" stroke="rgb(68,107,132)" stroke-width="1" opacity="1" d="M 97.5 37 L 98 40.5 L 97 40.5 L 97.5 37 Z " /><path fill="rgb(68,107,132)" stroke="rgb(68,107,132)" stroke-width="1" opacity="1" d="M 73.5 70 L 74 73.5 L 73 73.5 L 73.5 70 Z " /><path fill="rgb(68,107,132)" stroke="rgb(68,107,132)" stroke-width="1" opacity="1" d="M 73.5 78 L 74 83.5 L 73 83.5 L 73.5 78 Z " /><path fill="rgb(68,107,132)" stroke="rgb(68,107,132)" stroke-width="1" opacity="1" d="M 136.5 79 L 139 79.5 L 136.5 80 L 136.5 79 Z " /><path fill="rgb(68,107,132)" stroke="rgb(68,107,132)" stroke-width="1" opacity="1" d="M 129.5 80 L 131.5 83 L 129.5 80 Z " /><path fill="rgb(68,107,132)" stroke="rgb(68,107,132)" stroke-width="1" opacity="1" d="M 133.5 82 L 136 82.5 L 134.5 85 L 133.5 82 Z " /><path fill="rgb(68,107,132)" stroke="rgb(68,107,132)" stroke-width="1" opacity="1" d="M 127.5 83 L 126.5 85 L 127.5 83 Z " /><path fill="rgb(68,107,132)" stroke="rgb(68,107,132)" stroke-width="1" opacity="1" d="M 150.5 83 L 151.5 85 L 150.5 83 Z " /><path fill="rgb(68,107,132)" stroke="rgb(68,107,132)" stroke-width="1" opacity="1" d="M 100.5 84 L 101.5 86 L 100.5 84 Z " /><path fill="rgb(68,107,132)" stroke="rgb(68,107,132)" stroke-width="1" opacity="1" d="M 131.5 84 L 131.5 87 Q 128.5 85.5 131.5 84 Z " /><path fill="rgb(68,107,132)" stroke="rgb(68,107,132)" stroke-width="1" opacity="1" d="M 107.5 85 L 105.5 88 L 107.5 85 Z " /><path fill="rgb(68,107,132)" stroke="rgb(68,107,132)" stroke-width="1" opacity="1" d="M 119.5 85 L 118.5 87 L 119.5 85 Z " /><path fill="rgb(68,107,132)" stroke="rgb(68,107,132)" stroke-width="1" opacity="1" d="M 115.5 86 L 116.5 88 L 115.5 86 Z " /><path fill="rgb(68,107,132)" stroke="rgb(68,107,132)" stroke-width="1" opacity="1" d="M 137.5 86 L 139 86.5 L 137 87 L 134.5 91 L 136 88.5 L 137.5 86 Z " /><path fill="rgb(68,107,132)" stroke="rgb(68,107,132)" stroke-width="1" opacity="1" d="M 153.5 86 L 154.5 88 L 153.5 86 Z " /><path fill="rgb(68,107,132)" stroke="rgb(68,107,132)" stroke-width="1" opacity="1" d="M 99.5 87 L 100.5 89 L 99.5 87 Z " /><path fill="rgb(68,107,132)" stroke="rgb(68,107,132)" stroke-width="1" opacity="1" d="M 108.5 87 L 107.5 89 L 108.5 87 Z " /><path fill="rgb(68,107,132)" stroke="rgb(68,107,132)" stroke-width="1" opacity="1" d="M 131.5 88 L 134 88.5 L 131.5 89 L 131.5 88 Z " /><path fill="rgb(68,107,132)" stroke="rgb(68,107,132)" stroke-width="1" opacity="1" d="M 121.5 90 L 122 92.5 L 120 93.5 L 121.5 90 Z " /><path fill="rgb(68,107,132)" stroke="rgb(68,107,132)" stroke-width="1" opacity="1" d="M 111 91 L 113 91.5 Q 109.5 93 112 94.5 L 108.5 98 L 111 94.5 L 109.5 92 L 111 92.5 L 111 91 Z " /><path fill="rgb(68,107,132)" stroke="rgb(68,107,132)" stroke-width="1" opacity="1" d="M 103.5 92 L 107 93.5 L 105.5 93 Q 102.5 93.5 103.5 92 Z " /><path fill="rgb(68,107,132)" stroke="rgb(68,107,132)" stroke-width="1" opacity="1" d="M 115.5 92 L 116.5 94 L 115.5 92 Z " /><path fill="rgb(68,107,132)" stroke="rgb(68,107,132)" stroke-width="1" opacity="1" d="M 96.5 93 L 98.5 94 L 101.5 93 L 101.5 94 Q 98.2 92.9 99 95.5 L 98 95.5 Q 98.8 93.3 96.5 94 L 96.5 93 Z " /><path fill="rgb(68,107,132)" stroke="rgb(68,107,132)" stroke-width="1" opacity="1" d="M 118.5 93 L 120 97.5 L 118 96.5 L 118.5 93 Z " /><path fill="rgb(68,107,132)" stroke="rgb(68,107,132)" stroke-width="1" opacity="1" d="M 129.5 93 L 130 95.5 L 129 95.5 L 129.5 93 Z " /><path fill="rgb(68,107,132)" stroke="rgb(68,107,132)" stroke-width="1" opacity="1" d="M 103.5 94 L 105 94.5 L 101.5 96 L 101.5 95 L 103.5 94 Z " /><path fill="rgb(68,107,132)" stroke="rgb(68,107,132)" stroke-width="1" opacity="1" d="M 116.5 97 L 115.5 99 L 116.5 97 Z " /><path fill="rgb(68,107,132)" stroke="rgb(68,107,132)" stroke-width="1" opacity="1" d="M 101.5 98 L 102 100 Q 104.7 101.1 104 98.5 L 105 98.5 L 106 100.5 Q 104.8 103.3 103.5 101 L 101.5 102 Q 98.8 100.8 101 99.5 L 101.5 98 Z " /><path fill="rgb(68,107,132)" stroke="rgb(68,107,132)" stroke-width="1" opacity="1" d="M 127.5 98 L 129 100.5 L 125.5 102 L 126.5 100 L 128 100.5 L 127.5 98 Z " /><path fill="rgb(68,107,132)" stroke="rgb(68,107,132)" stroke-width="1" opacity="1" d="M 120.5 100 L 122.5 101 L 124 100.5 L 122.5 103 L 122 101 Q 119.3 99.9 120 102.5 L 119.5 105 L 117.5 102 L 119 102.5 L 120.5 100 Z " /><path fill="rgb(68,107,132)" stroke="rgb(68,107,132)" stroke-width="1" opacity="1" d="M 106.5 102 L 108.5 102 Q 110.8 101.3 110 103.5 L 110.5 105 Q 108.3 105.8 109 103.5 Q 106.9 105.1 106.5 102 Z " /><path fill="rgb(68,107,132)" stroke="rgb(68,107,132)" stroke-width="1" opacity="1" d="M 136.5 128 L 137.5 130 L 136.5 128 Z " /><path fill="rgb(68,107,132)" stroke="rgb(68,107,132)" stroke-width="1" opacity="1" d="M 150.5 136 L 151 138.5 L 150 138.5 L 150.5 136 Z " /><path fill="rgb(68,107,132)" stroke="rgb(68,107,132)" stroke-width="1" opacity="1" d="M 90.5 142 L 91 145.5 L 90 145.5 L 90.5 142 Z " /><path fill="rgb(68,107,132)" stroke="rgb(68,107,132)" stroke-width="1" opacity="1" d="M 90.5 147 L 91 149.5 L 90 149.5 L 90.5 147 Z " /><path fill="rgb(68,107,132)" stroke="rgb(68,107,132)" stroke-width="1" opacity="1" d="M 147.5 152 L 148 154.5 L 147 154.5 L 147.5 152 Z " /><path fill="rgb(68,107,132)" stroke="rgb(68,107,132)" stroke-width="1" opacity="1" d="M 91.5 153 L 92 156.5 L 91 156.5 L 91.5 153 Z " /><path fill="rgb(68,107,132)" stroke="rgb(68,107,132)" stroke-width="1" opacity="1" d="M 82.5 158 L 83 160 L 87 160.5 L 83.5 161 L 82.5 158 Z " /><path fill="rgb(68,107,132)" stroke="rgb(68,107,132)" stroke-width="1" opacity="1" d="M 146.5 158 L 145.5 160 L 146.5 158 Z " /><path fill="rgb(254,255,254)" stroke="rgb(254,255,254)" stroke-width="1" opacity="1" d="M 85.5 9 Q 87.8 8.3 87 10.5 L 85.5 9 Z " /><path fill="rgb(254,255,254)" stroke="rgb(254,255,254)" stroke-width="1" opacity="1" d="M 75.5 10 L 77.5 10 Q 79.8 9.3 79 11.5 L 76.5 12 Q 73.7 12.7 75.5 10 Z " /><path fill="rgb(254,255,254)" stroke="rgb(254,255,254)" stroke-width="1" opacity="1" d="M 82.5 19 L 84 19.5 L 81.5 21 L 82.5 19 Z " /><path fill="rgb(254,255,254)" stroke="rgb(254,255,254)" stroke-width="1" opacity="1" d="M 93.5 21 L 96 22.5 Q 96.8 24.8 94.5 24 L 94.5 22 L 93.5 21 Z " /><path fill="rgb(254,255,254)" stroke="rgb(254,255,254)" stroke-width="1" opacity="1" d="M 68.5 27 L 71 27.5 L 68.5 28 L 68.5 27 Z " /><path fill="rgb(254,255,254)" stroke="rgb(254,255,254)" stroke-width="1" opacity="1" d="M 81 41 L 83 41.5 L 81.5 44 L 81 41 Z " /><path fill="rgb(254,255,254)" stroke="rgb(254,255,254)" stroke-width="1" opacity="1" d="M 77.5 50 L 78.5 52 L 77.5 50 Z " /><path fill="rgb(254,255,254)" stroke="rgb(254,255,254)" stroke-width="1" opacity="1" d="M 72.5 70 L 73 82.5 L 72 82.5 L 72.5 70 Z " /><path fill="rgb(254,255,254)" stroke="rgb(254,255,254)" stroke-width="1" opacity="1" d="M 92.5 74 Q 94.8 73.3 94 75.5 L 92.5 74 Z " /><path fill="rgb(254,255,254)" stroke="rgb(254,255,254)" stroke-width="1" opacity="1" d="M 96.5 77 L 96.5 80 L 94 78.5 L 96.5 77 Z " /><path fill="rgb(254,255,254)" stroke="rgb(254,255,254)" stroke-width="1" opacity="1" d="M 145.5 79 L 148 79.5 L 145.5 80 L 145.5 79 Z " /><path fill="rgb(254,255,254)" stroke="rgb(254,255,254)" stroke-width="1" opacity="1" d="M 97.5 81 Q 99.8 80.3 99 82.5 L 97.5 81 Z " /><path fill="rgb(254,255,254)" stroke="rgb(254,255,254)" stroke-width="1" opacity="1" d="M 120.5 81 L 124 81.5 L 120 82 L 121 84.5 L 119.5 84 L 118 83.5 L 120.5 81 Z " /><path fill="rgb(254,255,254)" stroke="rgb(254,255,254)" stroke-width="1" opacity="1" d="M 113 82 L 117 82.5 L 113 85.5 L 113 82 Z " /><path fill="rgb(254,255,254)" stroke="rgb(254,255,254)" stroke-width="1" opacity="1" d="M 152.5 82 L 153 84 L 151 83.5 L 152.5 82 Z " /><path fill="rgb(254,255,254)" stroke="rgb(254,255,254)" stroke-width="1" opacity="1" d="M 154.5 84 L 153.5 86 L 154.5 84 Z " /><path fill="rgb(254,255,254)" stroke="rgb(254,255,254)" stroke-width="1" opacity="1" d="M 156.5 86 L 158 86.5 L 155.5 88 L 156.5 86 Z " /><path fill="rgb(254,255,254)" stroke="rgb(254,255,254)" stroke-width="1" opacity="1" d="M 109.5 91 L 108.5 93 L 109.5 91 Z " /><path fill="rgb(254,255,254)" stroke="rgb(254,255,254)" stroke-width="1" opacity="1" d="M 75 112 L 77 112.5 L 75 113.5 L 75 112 Z " /><path fill="rgb(254,255,254)" stroke="rgb(254,255,254)" stroke-width="1" opacity="1" d="M 158.5 117 L 156.5 120 L 158.5 117 Z " /><path fill="rgb(254,255,254)" stroke="rgb(254,255,254)" stroke-width="1" opacity="1" d="M 100.5 124 L 103 125.5 L 100 126 L 100.5 124 Z " /><path fill="rgb(254,255,254)" stroke="rgb(254,255,254)" stroke-width="1" opacity="1" d="M 133.5 124 L 134.5 126 Q 131.7 126.7 133.5 124 Z " /><path fill="rgb(254,255,254)" stroke="rgb(254,255,254)" stroke-width="1" opacity="1" d="M 81.5 131 L 82 133.5 L 81 133.5 L 81.5 131 Z " /><path fill="rgb(254,255,254)" stroke="rgb(254,255,254)" stroke-width="1" opacity="1" d="M 149.5 149 L 149 150.5 L 150 156.5 L 149 156.5 L 148 150.5 L 149.5 149 Z " /><path fill="rgb(254,255,254)" stroke="rgb(254,255,254)" stroke-width="1" opacity="1" d="M 82 153 L 84 153.5 L 82 154.5 L 82 153 Z " /><path fill="rgb(254,255,254)" stroke="rgb(254,255,254)" stroke-width="1" opacity="1" d="M 81.5 158 L 82 161 L 88 161.5 L 81 162 L 81.5 158 Z " /><path fill="rgb(254,255,254)" stroke="rgb(254,255,254)" stroke-width="1" opacity="1" d="M 139.5 159 L 138.5 161 L 139.5 159 Z " /><path fill="rgb(254,255,254)" stroke="rgb(254,255,254)" stroke-width="1" opacity="1" d="M 151 160 L 154 160.5 L 150 163.5 L 149.5 166 L 149 162 Q 152 163 151 160 Z " /><path fill="rgb(254,255,254)" stroke="rgb(254,255,254)" stroke-width="1" opacity="1" d="M 156.5 160 L 159 161.5 L 157.5 162 L 156.5 160 Z " /><path fill="rgb(254,255,254)" stroke="rgb(254,255,254)" stroke-width="1" opacity="1" d="M 58.5 166 L 59.5 168 L 58.5 166 Z " /><path fill="rgb(254,255,254)" stroke="rgb(254,255,254)" stroke-width="1" opacity="1" d="M 60.5 169 L 61.5 171 Q 58.7 171.7 60.5 169 Z " /><path fill="rgb(254,255,254)" stroke="rgb(254,255,254)" stroke-width="1" opacity="1" d="M 92.5 169 L 95 169.5 L 91.5 171 L 92.5 169 Z " /><path fill="rgb(254,255,254)" stroke="rgb(254,255,254)" stroke-width="1" opacity="1" d="M 102.5 169 L 103 171 L 105 171.5 L 103.5 172 L 102.5 169 Z " /><path fill="rgb(254,255,254)" stroke="rgb(254,255,254)" stroke-width="1" opacity="1" d="M 106 169 L 109 169.5 L 107 170 L 106.5 172 L 106 169 Z " /><path fill="rgb(254,255,254)" stroke="rgb(254,255,254)" stroke-width="1" opacity="1" d="M 133 169 L 135 169.5 L 133 170.5 L 133 169 Z " /><path fill="rgb(254,255,254)" stroke="rgb(254,255,254)" stroke-width="1" opacity="1" d="M 145.5 169 L 148 169.5 L 147.5 172 L 145.5 169 Z " /><path fill="rgb(254,255,254)" stroke="rgb(254,255,254)" stroke-width="1" opacity="1" d="M 149 169 L 151 169.5 L 149 170.5 L 149 169 Z " /><path fill="rgb(254,255,254)" stroke="rgb(254,255,254)" stroke-width="1" opacity="1" d="M 174.5 170 L 173.5 172 L 174.5 170 Z " /><path fill="rgb(254,255,254)" stroke="rgb(254,255,254)" stroke-width="1" opacity="1" d="M 184 171 L 186 171.5 L 184 172.5 L 184 171 Z " /><path fill="rgb(254,255,254)" stroke="rgb(254,255,254)" stroke-width="1" opacity="1" d="M 116.5 172 L 119 172.5 L 117.5 175 L 116.5 173 L 116 175 L 112 173.5 L 113.5 174 L 116.5 172 Z " /><path fill="rgb(254,255,254)" stroke="rgb(254,255,254)" stroke-width="1" opacity="1" d="M 125.5 173 L 128 174.5 L 123.5 175 L 123.5 174 L 125.5 173 Z " /><path fill="rgb(254,255,254)" stroke="rgb(254,255,254)" stroke-width="1" opacity="1" d="M 173.5 173 L 174 175.5 L 173 175.5 L 173.5 173 Z " /><path fill="rgb(254,255,254)" stroke="rgb(254,255,254)" stroke-width="1" opacity="1" d="M 81.5 174 L 82 183 L 87 183.5 L 81 184 L 81.5 174 Z " /><path fill="rgb(254,255,254)" stroke="rgb(254,255,254)" stroke-width="1" opacity="1" d="M 140.5 174 L 142 174.5 L 140 175.5 L 140.5 177 Q 137.5 175.5 140.5 174 Z " /><path fill="rgb(254,255,254)" stroke="rgb(254,255,254)" stroke-width="1" opacity="1" d="M 182 174 L 184 174.5 L 182 175.5 L 182 174 Z " /><path fill="rgb(254,255,254)" stroke="rgb(254,255,254)" stroke-width="1" opacity="1" d="M 105 175 L 108 176.5 L 106.5 179 L 105 175 Z " /><path fill="rgb(254,255,254)" stroke="rgb(254,255,254)" stroke-width="1" opacity="1" d="M 165 175 Q 167.7 173.9 167 176.5 L 166 179 L 162 178.5 L 165 178 L 165 175 Z " /><path fill="rgb(254,255,254)" stroke="rgb(254,255,254)" stroke-width="1" opacity="1" d="M 64.5 176 L 65 178.5 L 63 177.5 L 64.5 176 Z " /><path fill="rgb(254,255,254)" stroke="rgb(254,255,254)" stroke-width="1" opacity="1" d="M 117.5 177 L 118 179.5 L 117 179.5 L 117.5 177 Z " /><path fill="rgb(254,255,254)" stroke="rgb(254,255,254)" stroke-width="1" opacity="1" d="M 176.5 177 L 180 179.5 L 178.5 179 L 176.5 177 Z " /><path fill="rgb(254,255,254)" stroke="rgb(254,255,254)" stroke-width="1" opacity="1" d="M 184 177 Q 186.7 175.9 186 178.5 L 186 180.5 L 185.5 182 Q 183 180.8 184 177 Z " /><path fill="rgb(254,255,254)" stroke="rgb(254,255,254)" stroke-width="1" opacity="1" d="M 110 178 L 112 178.5 L 110 179.5 L 110 178 Z " /><path fill="rgb(254,255,254)" stroke="rgb(254,255,254)" stroke-width="1" opacity="1" d="M 50.5 179 L 59 179.5 L 50.5 180 L 50.5 179 Z " /><path fill="rgb(254,255,254)" stroke="rgb(254,255,254)" stroke-width="1" opacity="1" d="M 66.5 180 L 67 182.5 L 66.5 184 L 59 184 L 59.5 181 L 60 183 L 66 182.5 Q 63.8 181.3 66.5 180 Z " /><path fill="rgb(254,255,254)" stroke="rgb(254,255,254)" stroke-width="1" opacity="1" d="M 103 180 Q 106 179 105 182 Q 102 183 103 180 Z " /><path fill="rgb(254,255,254)" stroke="rgb(254,255,254)" stroke-width="1" opacity="1" d="M 156.5 180 Q 159.1 179.3 158 182 L 160 182 L 160 184 Q 157.3 185.1 158 182.5 L 156.5 180 Z " /><path fill="rgb(254,255,254)" stroke="rgb(254,255,254)" stroke-width="1" opacity="1" d="M 139.5 181 L 140 183.5 L 139 183.5 L 139.5 181 Z " /><path fill="rgb(254,255,254)" stroke="rgb(254,255,254)" stroke-width="1" opacity="1" d="M 133.5 182 L 138 183.5 L 132.5 184 L 133.5 182 Z " /><path fill="rgb(254,255,254)" stroke="rgb(254,255,254)" stroke-width="1" opacity="1" d="M 172.5 182 Q 175.1 181.3 174 184 L 167 183.5 L 172.5 182 Z " /><path fill="rgb(254,255,254)" stroke="rgb(254,255,254)" stroke-width="1" opacity="1" d="M 45.5 183 L 49 183.5 L 45.5 184 L 45.5 183 Z " /><path fill="rgb(254,255,254)" stroke="rgb(254,255,254)" stroke-width="1" opacity="1" d="M 113.5 183 L 116 183.5 L 113.5 184 L 113.5 183 Z " /><path fill="rgb(254,255,254)" stroke="rgb(254,255,254)" stroke-width="1" opacity="1" d="M 128.5 183 L 131 183.5 L 128.5 184 L 128.5 183 Z " /><path fill="rgb(254,255,254)" stroke="rgb(254,255,254)" stroke-width="1" opacity="1" d="M 147.5 183 L 152 183.5 L 147.5 184 L 147.5 183 Z " /><path fill="rgb(254,255,254)" stroke="rgb(254,255,254)" stroke-width="1" opacity="1" d="M 110.5 187 Q 116.3 185.3 115 189 L 108 188.5 L 110.5 187 Z " /><path fill="rgb(254,255,254)" stroke="rgb(254,255,254)" stroke-width="1" opacity="1" d="M 157.5 187 L 156.5 189 L 157.5 187 Z " /><path fill="rgb(254,255,254)" stroke="rgb(254,255,254)" stroke-width="1" opacity="1" d="M 160.5 187 Q 162.8 186.3 162 188.5 L 160.5 187 Z " /><path fill="rgb(254,255,254)" stroke="rgb(254,255,254)" stroke-width="1" opacity="1" d="M 152.5 188 L 153.5 190 L 151 189.5 L 152.5 188 Z " /><path fill="rgb(254,255,254)" stroke="rgb(254,255,254)" stroke-width="1" opacity="1" d="M 119.5 189 Q 121.8 188.3 121 190.5 L 119.5 189 Z " /><path fill="rgb(254,255,254)" stroke="rgb(254,255,254)" stroke-width="1" opacity="1" d="M 122.5 192 L 121.5 194 L 122.5 192 Z " /><path fill="rgb(254,255,254)" stroke="rgb(254,255,254)" stroke-width="1" opacity="1" d="M 157.5 192 L 157 193.5 L 156.5 195 L 156 193.5 L 157.5 192 Z " /><path fill="rgb(254,255,254)" stroke="rgb(254,255,254)" stroke-width="1" opacity="1" d="M 115.5 194 L 116.5 196 L 114.5 197 L 115 195.5 L 115.5 194 Z " /><path fill="rgb(254,255,254)" stroke="rgb(254,255,254)" stroke-width="1" opacity="1" d="M 66 196 L 69 196.5 L 64 200 L 66 196 Z " /><path fill="rgb(254,255,254)" stroke="rgb(254,255,254)" stroke-width="1" opacity="1" d="M 124.5 196 L 127 196.5 L 124.5 197 L 124.5 196 Z " /><path fill="rgb(254,255,254)" stroke="rgb(254,255,254)" stroke-width="1" opacity="1" d="M 132.5 196 L 135 196 Q 133.9 198.7 136.5 198 L 136.5 196 L 138 196 L 138 201 Q 135.3 202.1 136 199.5 L 132.5 196 Z " /><path fill="rgb(254,255,254)" stroke="rgb(254,255,254)" stroke-width="1" opacity="1" d="M 141.5 196 L 144 196.5 L 141.5 197 L 141.5 196 Z " /><path fill="rgb(254,255,254)" stroke="rgb(254,255,254)" stroke-width="1" opacity="1" d="M 121.5 197 Q 124.5 196.1 123 200.5 L 122 200.5 L 121.5 197 Z " /><path fill="rgb(254,255,254)" stroke="rgb(254,255,254)" stroke-width="1" opacity="1" d="M 154.5 198 L 155 204.5 L 154 204.5 L 154.5 198 Z " /><path fill="rgb(254,255,254)" stroke="rgb(254,255,254)" stroke-width="1" opacity="1" d="M 119 200 Q 122 199 121 202 Q 118 203 119 200 Z " /><path fill="rgb(254,255,254)" stroke="rgb(254,255,254)" stroke-width="1" opacity="1" d="M 147.5 200 L 146.5 202 L 147.5 200 Z " /><path fill="rgb(254,255,254)" stroke="rgb(254,255,254)" stroke-width="1" opacity="1" d="M 71.5 201 L 75 201.5 L 71.5 202 L 71.5 201 Z " /><path fill="rgb(254,255,254)" stroke="rgb(254,255,254)" stroke-width="1" opacity="1" d="M 87.5 201 L 90 201.5 L 87.5 202 L 87.5 201 Z " /><path fill="rgb(254,255,254)" stroke="rgb(254,255,254)" stroke-width="1" opacity="1" d="M 73.5 203 L 75 205.5 L 73 205.5 L 72.5 207 L 71.5 205 Q 74 205.7 73.5 203 Z " /><path fill="rgb(254,255,254)" stroke="rgb(254,255,254)" stroke-width="1" opacity="1" d="M 92.5 205 L 93.5 207 L 92.5 205 Z " /><path fill="rgb(254,255,254)" stroke="rgb(254,255,254)" stroke-width="1" opacity="1" d="M 132.5 205 L 133.5 207 L 132.5 205 Z " /><path fill="rgb(254,255,254)" stroke="rgb(254,255,254)" stroke-width="1" opacity="1" d="M 137.5 205 L 138 210 L 140 210.5 L 137 211 L 137.5 205 Z " /><path fill="rgb(254,255,254)" stroke="rgb(254,255,254)" stroke-width="1" opacity="1" d="M 149.5 205 L 151 209 L 155 210.5 L 152.5 211 L 149 209 L 149.5 205 Z " /><path fill="rgb(254,255,254)" stroke="rgb(254,255,254)" stroke-width="1" opacity="1" d="M 163.5 206 L 164 209 L 162 209 Q 163.1 211.7 160.5 211 L 162 208.5 L 163.5 206 Z " /><path fill="rgb(254,255,254)" stroke="rgb(254,255,254)" stroke-width="1" opacity="1" d="M 65.5 208 L 68 209.5 L 66.5 210 L 65.5 208 Z " /><path fill="rgb(254,255,254)" stroke="rgb(254,255,254)" stroke-width="1" opacity="1" d="M 134.5 209 L 135 211 L 132 210.5 L 134.5 209 Z " /><path fill="rgb(254,255,254)" stroke="rgb(254,255,254)" stroke-width="1" opacity="1" d="M 76.5 210 L 80 210.5 L 76.5 211 L 76.5 210 Z " /><path fill="rgb(255,255,255)" stroke="rgb(255,255,255)" stroke-width="1" opacity="1" d="M 0 0 L 225 0 L 225 225 L 0 225 L 0 0 Z M 83 9 L 82 13 L 85 18 L 85 20 L 81 13 L 79 13 Q 80 9 78 10 L 78 12 L 76 10 L 75 12 L 75 14 L 80 15 Q 82 16 81 21 L 83 21 L 75 25 L 72 26 Q 73 29 69 27 L 69 29 L 68 29 L 68 31 L 65 36 Q 67 40 76 39 Q 77 41 79 38 Q 83 36 82 40 L 83 41 Q 80 40 81 47 L 79 47 L 80 49 L 76 59 L 73 60 L 75 61 L 72 71 L 73 90 L 73 92 L 72 94 L 74 98 Q 76 104 73 106 L 75 106 L 76 111 L 75 114 L 77 113 L 77 115 L 78 117 Q 80 116 79 119 L 79 121 Q 83 124 81 134 L 81 136 L 85 146 L 85 153 L 82 153 L 82 155 L 84 155 L 82 156 L 82 158 L 81 162 Q 90 164 92 158 Q 94 151 91 150 L 92 139 L 99 123 L 100 126 L 108 127 L 111 128 L 120 128 L 121 127 L 123 128 L 134 123 L 133 125 Q 132 127 135 126 L 135 130 L 137 130 L 140 135 L 140 137 L 142 137 L 143 141 L 143 151 L 142 152 Q 143 154 141 153 L 141 155 L 139 160 L 142 161 L 146 160 L 148 161 L 149 151 L 149 149 L 152 137 L 152 128 L 155 122 Q 154 119 157 120 L 158 117 Q 157 114 160 115 L 162 104 L 159 95 L 161 94 L 158 93 L 157 90 L 156 89 L 158 86 L 156 87 Q 153 87 153 83 L 152 83 L 146 81 L 148 80 L 148 79 L 145 80 L 143 79 L 131 79 L 130 80 L 127 79 L 127 81 Q 119 80 117 84 L 117 82 Q 112 81 113 84 L 110 84 L 110 86 L 102 83 Q 98 84 99 81 L 97 81 Q 94 80 96 79 L 95 78 Q 92 77 94 76 Q 95 73 92 74 L 91 70 L 91 68 L 92 61 L 94 61 L 94 60 L 94 58 Q 93 55 96 56 L 95 55 L 98 46 L 98 44 L 98 35 L 99 34 Q 100 31 97 32 L 98 28 L 95 26 L 96 23 L 95 23 L 95 22 L 94 21 L 90 17 L 90 14 L 85 11 L 87 11 L 87 9 L 83 9 Z M 54 160 Q 55 163 53 162 L 53 164 L 52 166 L 50 166 L 51 168 L 49 169 L 49 171 L 45 178 Q 46 181 43 180 L 43 184 L 46 184 L 49 184 Q 48 181 51 182 L 51 180 L 59 180 L 59 184 L 67 184 L 68 183 L 70 184 L 72 184 L 72 175 L 75 174 L 78 175 L 77 172 L 78 169 L 66 170 L 67 171 L 67 180 L 67 182 L 64 180 L 65 177 L 64 177 L 61 173 L 62 171 L 60 169 L 60 168 L 58 165 L 58 162 Q 55 163 56 160 L 54 160 Z M 151 160 Q 152 163 149 162 Q 147 168 154 166 L 156 166 Q 155 163 158 164 L 159 162 L 158 160 L 151 160 Z M 81 164 L 82 167 Q 83 171 79 169 L 79 175 L 81 174 L 81 184 L 87 184 L 87 175 L 90 175 L 90 180 Q 93 179 92 182 L 96 184 L 107 182 L 107 184 L 109 183 Q 110 186 116 184 L 116 182 Q 118 183 117 180 Q 120 179 119 182 L 123 184 L 127 184 L 129 184 L 132 183 Q 133 185 138 184 L 140 184 L 139 177 L 143 174 L 144 175 L 144 184 L 146 184 L 148 184 L 153 183 L 155 184 L 155 169 L 149 169 L 150 173 Q 147 174 148 172 L 148 170 L 122 169 L 117 174 L 117 177 L 115 176 L 117 173 L 117 169 L 106 169 L 106 175 L 105 174 L 105 171 Q 102 172 103 170 L 102 170 L 101 169 L 93 169 Q 90 170 92 172 L 90 173 Q 92 167 87 169 L 87 164 L 81 164 Z M 161 169 L 157 171 L 157 173 L 156 175 L 157 180 Q 155 181 158 183 Q 157 185 160 184 L 162 184 L 167 183 Q 168 186 174 184 L 176 184 Q 180 185 182 183 L 184 184 L 184 182 L 186 182 L 186 181 L 186 179 Q 187 176 185 177 L 183 174 L 186 172 L 182 169 L 175 170 Q 172 171 174 173 L 173 176 L 177 179 L 174 178 L 173 182 L 172 182 L 172 171 L 173 170 L 161 169 Z M 77 187 L 75 189 Q 78 190 76 197 L 75 196 L 67 196 Q 67 199 64 198 L 65 201 L 64 204 L 65 207 L 65 209 L 70 211 Q 74 212 76 210 L 81 211 L 81 188 Q 81 186 77 187 Z M 111 187 L 110 188 L 108 189 L 108 211 L 113 211 L 113 202 L 118 202 L 120 202 Q 122 203 121 201 Q 119 199 122 198 L 122 207 L 125 210 L 124 211 L 126 211 L 128 211 L 135 211 L 135 208 L 134 205 Q 139 207 137 202 L 138 202 L 137 206 L 137 211 L 143 211 Q 142 204 144 201 L 147 202 L 149 199 L 149 209 L 153 211 L 159 211 L 161 211 L 164 209 L 164 196 L 158 197 Q 161 198 159 205 L 156 206 L 155 199 L 155 197 L 137 196 L 137 198 L 135 198 L 135 196 L 125 196 L 124 199 L 121 193 L 121 189 L 116 189 Q 116 186 111 187 Z M 158 187 L 153 192 Q 152 195 156 193 L 157 195 L 157 194 L 160 193 Q 159 190 162 191 Q 164 185 158 187 Z M 87 196 L 83 198 L 82 201 Q 81 205 83 207 L 82 209 L 87 211 L 92 211 L 94 211 Q 93 208 96 209 L 96 207 L 93 206 L 97 205 Q 98 199 94 197 L 93 197 Q 91 195 87 196 Z " /><path fill="rgb(255,255,255)" stroke="rgb(255,255,255)" stroke-width="1" opacity="1" d="M 126.5 87 L 127.5 89 L 126.5 87 Z " /><path fill="rgb(255,255,255)" stroke="rgb(255,255,255)" stroke-width="1" opacity="1" d="M 133.5 171 L 134 181.5 L 133 181.5 L 133.5 171 Z " /><path fill="rgb(255,255,255)" stroke="rgb(255,255,255)" stroke-width="1" opacity="1" d="M 178.5 173 L 182 174.5 L 180.5 175 L 178.5 173 Z " /><path fill="rgb(255,255,255)" stroke="rgb(255,255,255)" stroke-width="1" opacity="1" d="M 96.5 174 L 100 174.5 L 96.5 175 L 96.5 174 Z " /><path fill="rgb(255,255,255)" stroke="rgb(255,255,255)" stroke-width="1" opacity="1" d="M 149.5 174 L 150 182.5 L 149 182.5 L 149.5 174 Z " /><path fill="rgb(255,255,255)" stroke="rgb(255,255,255)" stroke-width="1" opacity="1" d="M 162.5 174 L 164.5 174 L 166 174.5 L 165 178 Q 159.9 179.6 162.5 174 Z " /><path fill="rgb(255,255,255)" stroke="rgb(255,255,255)" stroke-width="1" opacity="1" d="M 123 175 L 128 175 L 128 178 L 124.5 179 L 123 175 Z " /><path fill="rgb(255,255,255)" stroke="rgb(255,255,255)" stroke-width="1" opacity="1" d="M 107.5 177 L 110 178.5 L 108.5 178 L 107.5 177 Z " /><path fill="rgb(255,255,255)" stroke="rgb(255,255,255)" stroke-width="1" opacity="1" d="M 101.5 178 Q 107.3 176.3 106 180 Q 101.3 181 101.5 178 Z " /><path fill="rgb(255,255,255)" stroke="rgb(255,255,255)" stroke-width="1" opacity="1" d="M 113 194 Q 115.7 192.9 115 195.5 L 115.5 197 L 113 196.5 L 113 194 Z " /><path fill="rgb(255,255,255)" stroke="rgb(255,255,255)" stroke-width="1" opacity="1" d="M 70.5 201 L 75 202 L 74.5 204 L 73 203.5 L 74 205.5 L 72.5 205 L 70.5 206 L 70.5 201 Z " /><path fill="rgb(255,255,255)" stroke="rgb(255,255,255)" stroke-width="1" opacity="1" d="M 129.5 205 L 132 205.5 L 129.5 206 L 129.5 205 Z " /><path fill="rgb(19,75,107)" stroke="rgb(19,75,107)" stroke-width="1" opacity="1" d="M 83 12 L 86 13.5 L 86.5 15 L 88 14.5 Q 85.2 16.3 89.5 18 L 91 18.5 L 91 20.5 L 94 28 L 96 28.5 L 95 32 L 97 32.5 L 96 33.5 L 96 44.5 Q 98.5 46 95 47.5 L 96 49.5 L 94 50 L 95 52.5 L 93 53 L 90 61.5 L 90.5 63 L 89 63.5 L 89 70.5 L 95 83 L 99 84 L 100 86.5 L 98 87 L 96 94.5 L 99 96 Q 97.8 101.5 101.5 103 L 106 102 L 107.5 105 L 110.5 106 L 111.5 103 L 114 103.5 Q 113.3 106.1 116 105 L 115 102.5 L 119.5 106 Q 124.3 106.8 125 103.5 L 125.5 102 L 128 103 L 128 101 L 130 101 Q 128.9 98.3 131.5 99 L 133 96 L 136 96 L 136 94 Q 138.7 95.1 138 92.5 L 138 88.5 L 139 86.5 L 138.5 85 L 140 84.5 L 137 83.5 Q 137.8 80.9 134.5 82 L 134.5 81 L 142.5 81 L 143.5 80 L 144 82 L 146.5 81 L 147.5 83 L 149 82.5 L 151.5 86 L 153 85.5 Q 150.3 87.3 154.5 89 L 156 89.5 L 156 91.5 L 159 99.5 L 159 108.5 L 160 109.5 L 154 118.5 L 154.5 120 L 152 121.5 L 150 126.5 L 150 137.5 L 147 146.5 L 147 150.5 Q 149.5 152 146 153.5 Q 146.8 158.3 144.5 160 L 144 158 L 141 157.5 L 141.5 155 L 143 154.5 L 142.5 153 Q 145.1 153.8 144 150.5 L 145 149.5 L 145 140 L 143 139.5 L 144 136.5 L 140.5 132 L 138 130.5 Q 140.5 129 137 127.5 L 136 122 L 133.5 121 L 132.5 123 L 131 122.5 L 130.5 124 L 128.5 123 Q 126.3 126 121 125 Q 122.1 127.7 119.5 127 Q 117.7 124.2 111.5 126 Q 110 128.5 108.5 125 L 105.5 126 L 105 124 Q 100.4 124.6 98.5 121 L 95 125.5 L 91 136.5 L 91.5 138 Q 88.9 137.2 90 140.5 Q 92.5 142 89 143.5 Q 87.8 149.3 91 150.5 L 88.5 160 L 84 159 L 86 153.5 L 85.5 152 L 87 151.5 L 87 145 L 85 144.5 L 86 142.5 L 84 132 L 82 131.5 Q 84.5 130 83 124.5 L 81 116.5 L 78.5 113 L 77 112.5 L 78 110.5 L 75 103.5 Q 77.2 102.2 76 97.5 Q 72.5 96 75 94.5 L 75 80.5 Q 72.4 79.1 73 74.5 L 75 71.5 Q 74 63.5 77 59.5 L 76.5 58 Q 78.8 58.8 78 56.5 L 81 50.5 L 80.5 49 Q 82.8 49.8 82 47.5 L 85 40.5 L 82.5 36 L 69.5 37 L 67 36.5 L 68 33.5 L 67.5 32 L 83 23 L 83.5 21 Q 84.8 23.3 86 20.5 L 85.5 19 Q 87.8 19.8 87 17.5 L 84.5 13 L 83 13.5 L 83 12 Z " /><path fill="rgb(19,75,107)" stroke="rgb(19,75,107)" stroke-width="1" opacity="1" d="M 107.5 89 L 106.5 91 L 107.5 89 Z " /><path fill="rgb(19,75,107)" stroke="rgb(19,75,107)" stroke-width="1" opacity="1" d="M 117.5 90 L 117.5 93 Q 114.5 91.5 117.5 90 Z " /><path fill="rgb(19,75,107)" stroke="rgb(19,75,107)" stroke-width="1" opacity="1" d="M 134.5 92 L 133.5 94 L 134.5 92 Z " /><path fill="rgb(19,75,107)" stroke="rgb(19,75,107)" stroke-width="1" opacity="1" d="M 121.5 93 L 123 95.5 L 122 95.5 L 121.5 93 Z " /><path fill="rgb(19,75,107)" stroke="rgb(19,75,107)" stroke-width="1" opacity="1" d="M 126.5 93 L 128 95.5 L 126.5 95 L 125 94.5 L 126.5 93 Z " /><path fill="rgb(19,75,107)" stroke="rgb(19,75,107)" stroke-width="1" opacity="1" d="M 125.5 98 L 124.5 100 L 125.5 98 Z " /><path fill="rgb(19,75,107)" stroke="rgb(19,75,107)" stroke-width="1" opacity="1" d="M 108.5 100 L 109 102 L 107 101.5 L 108.5 100 Z " /><path fill="rgb(197,192,189)" stroke="rgb(197,192,189)" stroke-width="1" opacity="1" d="M 85.5 11 L 86.5 13 L 85.5 11 Z " /><path fill="rgb(197,192,189)" stroke="rgb(197,192,189)" stroke-width="1" opacity="1" d="M 76 12 L 78 12.5 L 76 13.5 L 76 12 Z " /><path fill="rgb(197,192,189)" stroke="rgb(197,192,189)" stroke-width="1" opacity="1" d="M 83.5 14 L 84.5 16 L 83.5 14 Z " /><path fill="rgb(197,192,189)" stroke="rgb(197,192,189)" stroke-width="1" opacity="1" d="M 82.5 16 L 81.5 18 L 82.5 16 Z " /><path fill="rgb(197,192,189)" stroke="rgb(197,192,189)" stroke-width="1" opacity="1" d="M 89.5 16 L 90.5 18 L 89.5 16 Z " /><path fill="rgb(197,192,189)" stroke="rgb(197,192,189)" stroke-width="1" opacity="1" d="M 66.5 33 L 67 35.5 L 66 35.5 L 66.5 33 Z " /><path fill="rgb(197,192,189)" stroke="rgb(197,192,189)" stroke-width="1" opacity="1" d="M 97.5 34 L 98 36.5 L 97 36.5 L 97.5 34 Z " /><path fill="rgb(197,192,189)" stroke="rgb(197,192,189)" stroke-width="1" opacity="1" d="M 97.5 41 L 98 43.5 L 97 43.5 L 97.5 41 Z " /><path fill="rgb(197,192,189)" stroke="rgb(197,192,189)" stroke-width="1" opacity="1" d="M 90.5 64 L 91 69.5 L 90 69.5 L 90.5 64 Z " /><path fill="rgb(197,192,189)" stroke="rgb(197,192,189)" stroke-width="1" opacity="1" d="M 73.5 67 L 74 69.5 L 73 69.5 L 73.5 67 Z " /><path fill="rgb(197,192,189)" stroke="rgb(197,192,189)" stroke-width="1" opacity="1" d="M 94.5 79 L 97.5 83 L 94.5 79 Z " /><path fill="rgb(197,192,189)" stroke="rgb(197,192,189)" stroke-width="1" opacity="1" d="M 133.5 79 L 136 79.5 L 132.5 81 L 133.5 79 Z " /><path fill="rgb(197,192,189)" stroke="rgb(197,192,189)" stroke-width="1" opacity="1" d="M 139.5 79 L 142 79.5 L 139.5 80 L 139.5 79 Z " /><path fill="rgb(197,192,189)" stroke="rgb(197,192,189)" stroke-width="1" opacity="1" d="M 125.5 81 L 128 82.5 L 128 84.5 L 127 86.5 L 127.5 88 L 126 87.5 Q 126.8 89.8 124.5 89 L 125.5 91 Q 128.1 90.3 127 93 L 123 95 L 120 85.5 L 121.5 82 L 122.5 84 L 125.5 81 Z M 126 82 L 124 87 L 123 85 L 122 88 L 125 88 Q 124 85 127 86 L 126 82 Z M 123 91 Q 122 94 125 93 Q 126 90 123 91 Z " /><path fill="rgb(197,192,189)" stroke="rgb(197,192,189)" stroke-width="1" opacity="1" d="M 135 83 L 137 83.5 L 136.5 85 L 138.5 84 L 137.5 86 Q 133.3 87.1 135 83 Z " /><path fill="rgb(197,192,189)" stroke="rgb(197,192,189)" stroke-width="1" opacity="1" d="M 73.5 84 L 74 93.5 L 73 93.5 L 73.5 84 Z " /><path fill="rgb(197,192,189)" stroke="rgb(197,192,189)" stroke-width="1" opacity="1" d="M 111 84 L 113 84.5 L 110.5 88 L 108.5 87 L 109 88.5 Q 108.1 91.9 113.5 90 L 116 86.5 L 114 85.5 L 116.5 84 L 116 87.5 L 116.5 89 L 119 87.5 Q 117.5 91.9 120.5 91 L 120.5 92 L 118.5 93 L 118 90 L 115 90.5 L 116 93.5 L 114.5 97 Q 110.1 98.5 111 95.5 L 110 94.5 L 112.5 91 L 110.5 92 Q 109.3 89.8 108 92.5 L 109 95.5 L 107 95.5 L 108.5 98 L 110 97.5 L 111.5 101 L 115 100 L 114.5 102 L 110.5 102 Q 107.9 102.8 109 99.5 L 106 97.5 L 109 103.5 L 106 101.5 L 104 95 L 106 94.5 L 104 93.5 L 108 92 L 107.5 88 L 105.5 91 L 106 89.5 Q 104.9 86.2 107.5 87 L 111 86 L 111 84 Z M 113 93 Q 110 95 113 96 L 115 95 L 113 93 Z " /><path fill="rgb(197,192,189)" stroke="rgb(197,192,189)" stroke-width="1" opacity="1" d="M 103.5 86 L 102.5 88 L 103.5 86 Z " /><path fill="rgb(197,192,189)" stroke="rgb(197,192,189)" stroke-width="1" opacity="1" d="M 100.5 87 L 99.5 89 L 100.5 87 Z " /><path fill="rgb(197,192,189)" stroke="rgb(197,192,189)" stroke-width="1" opacity="1" d="M 112 87 L 114 87.5 L 112 88.5 L 112 87 Z " /><path fill="rgb(197,192,189)" stroke="rgb(197,192,189)" stroke-width="1" opacity="1" d="M 130.5 87 L 131 89 L 135.5 88 L 133 91.5 L 132 98 Q 129.3 96.9 130 99.5 L 128 99.5 L 127.5 101 L 125.5 98 L 122 98.5 L 126 100.5 L 124 101 L 122.5 105 L 122 103.5 L 123 101.5 L 120.5 98 L 119 102.5 L 119.5 104 Q 117.5 100 115.5 104 L 114 103.5 L 119 99.5 L 117.5 99 L 116 99.5 L 120 97.5 L 119 95.5 Q 120.8 92.3 122.5 96 Q 127.1 95.4 128.5 98 L 129.5 96 L 131 96.5 L 132 92.5 L 129.5 92 L 128 92.5 Q 127.1 89.1 132.5 91 L 132.5 90 L 127 89.5 L 130 89 L 130.5 87 Z " /><path fill="rgb(197,192,189)" stroke="rgb(197,192,189)" stroke-width="1" opacity="1" d="M 102.5 89 Q 104.8 88.3 104 90.5 L 102.5 89 Z " /><path fill="rgb(197,192,189)" stroke="rgb(197,192,189)" stroke-width="1" opacity="1" d="M 98.5 92 L 99 93.5 L 97 94.5 L 98.5 92 Z " /><path fill="rgb(197,192,189)" stroke="rgb(197,192,189)" stroke-width="1" opacity="1" d="M 136.5 92 L 137 93.5 L 135 94.5 L 136.5 92 Z " /><path fill="rgb(197,192,189)" stroke="rgb(197,192,189)" stroke-width="1" opacity="1" d="M 117.5 94 L 118 96.5 L 117 96.5 L 117.5 94 Z " /><path fill="rgb(197,192,189)" stroke="rgb(197,192,189)" stroke-width="1" opacity="1" d="M 99.5 95 L 102 96.5 L 100.5 100 L 100 97.5 L 100.5 96 L 99.5 95 Z " /><path fill="rgb(197,192,189)" stroke="rgb(197,192,189)" stroke-width="1" opacity="1" d="M 160.5 102 L 161 107.5 L 160 107.5 L 160.5 102 Z " /><path fill="rgb(197,192,189)" stroke="rgb(197,192,189)" stroke-width="1" opacity="1" d="M 157.5 116 L 156.5 118 L 157.5 116 Z " /><path fill="rgb(197,192,189)" stroke="rgb(197,192,189)" stroke-width="1" opacity="1" d="M 133.5 122 Q 135.8 121.3 135 123.5 L 133.5 122 Z " /><path fill="rgb(197,192,189)" stroke="rgb(197,192,189)" stroke-width="1" opacity="1" d="M 81.5 126 L 82 128.5 L 81 128.5 L 81.5 126 Z " /><path fill="rgb(197,192,189)" stroke="rgb(197,192,189)" stroke-width="1" opacity="1" d="M 113.5 127 L 117 127.5 L 113.5 128 L 113.5 127 Z " /><path fill="rgb(197,192,189)" stroke="rgb(197,192,189)" stroke-width="1" opacity="1" d="M 151.5 127 L 152 132.5 L 151 132.5 L 151.5 127 Z " /><path fill="rgb(197,192,189)" stroke="rgb(197,192,189)" stroke-width="1" opacity="1" d="M 139.5 132 L 140.5 134 L 139.5 132 Z " /><path fill="rgb(197,192,189)" stroke="rgb(197,192,189)" stroke-width="1" opacity="1" d="M 143.5 141 L 144 143.5 L 143 143.5 L 143.5 141 Z " /><path fill="rgb(197,192,189)" stroke="rgb(197,192,189)" stroke-width="1" opacity="1" d="M 147.5 155 L 148 157.5 L 147 157.5 L 147.5 155 Z " /><path fill="rgb(197,192,189)" stroke="rgb(197,192,189)" stroke-width="1" opacity="1" d="M 90.5 158 L 89.5 160 L 90.5 158 Z " /><path fill="rgb(197,192,189)" stroke="rgb(197,192,189)" stroke-width="1" opacity="1" d="M 139.5 158 L 140.5 160 L 139.5 158 Z " /><path fill="rgb(197,192,189)" stroke="rgb(197,192,189)" stroke-width="1" opacity="1" d="M 82.5 165 L 83 168.5 L 82 168.5 L 82.5 165 Z " /><path fill="rgb(197,192,189)" stroke="rgb(197,192,189)" stroke-width="1" opacity="1" d="M 74.5 169 L 78 170.5 L 76.5 170 Q 73.5 170.5 74.5 169 Z " /><path fill="rgb(197,192,189)" stroke="rgb(197,192,189)" stroke-width="1" opacity="1" d="M 96.5 169 L 99 169.5 L 96.5 170 L 96.5 169 Z " /><path fill="rgb(197,192,189)" stroke="rgb(197,192,189)" stroke-width="1" opacity="1" d="M 110.5 169 L 113 169.5 L 110.5 170 L 110.5 169 Z " /><path fill="rgb(197,192,189)" stroke="rgb(197,192,189)" stroke-width="1" opacity="1" d="M 123.5 169 L 126 169.5 L 123.5 170 L 123.5 169 Z " /><path fill="rgb(197,192,189)" stroke="rgb(197,192,189)" stroke-width="1" opacity="1" d="M 162.5 169 L 165 169.5 L 162.5 170 L 162.5 169 Z " /><path fill="rgb(197,192,189)" stroke="rgb(197,192,189)" stroke-width="1" opacity="1" d="M 67.5 170 L 68 182.5 L 67 182.5 L 67.5 170 Z " /><path fill="rgb(197,192,189)" stroke="rgb(197,192,189)" stroke-width="1" opacity="1" d="M 132.5 170 L 133 182.5 L 132 182.5 L 132.5 170 Z " /><path fill="rgb(197,192,189)" stroke="rgb(197,192,189)" stroke-width="1" opacity="1" d="M 145.5 170 L 147.5 173 L 145.5 170 Z " /><path fill="rgb(197,192,189)" stroke="rgb(197,192,189)" stroke-width="1" opacity="1" d="M 115.5 172 L 114.5 174 L 115.5 172 Z " /><path fill="rgb(197,192,189)" stroke="rgb(197,192,189)" stroke-width="1" opacity="1" d="M 80.5 173 L 83 174.5 L 82.5 183 L 82 174 L 80.5 173 Z " /><path fill="rgb(197,192,189)" stroke="rgb(197,192,189)" stroke-width="1" opacity="1" d="M 86.5 173 L 89 173.5 L 86.5 174 L 86.5 173 Z " /><path fill="rgb(197,192,189)" stroke="rgb(197,192,189)" stroke-width="1" opacity="1" d="M 99.5 173 L 100.5 175 L 99.5 173 Z " /><path fill="rgb(197,192,189)" stroke="rgb(197,192,189)" stroke-width="1" opacity="1" d="M 123.5 173 L 122.5 175 L 123.5 173 Z " /><path fill="rgb(197,192,189)" stroke="rgb(197,192,189)" stroke-width="1" opacity="1" d="M 162.5 173 L 161.5 175 L 162.5 173 Z " /><path fill="rgb(197,192,189)" stroke="rgb(197,192,189)" stroke-width="1" opacity="1" d="M 71.5 175 L 72 181.5 L 71 181.5 L 71.5 175 Z " /><path fill="rgb(197,192,189)" stroke="rgb(197,192,189)" stroke-width="1" opacity="1" d="M 104.5 175 L 105 176.5 L 103.5 178 L 95.5 178 L 95.5 177 L 103.5 177 L 104.5 175 Z " /><path fill="rgb(197,192,189)" stroke="rgb(197,192,189)" stroke-width="1" opacity="1" d="M 128.5 175 L 129 177.5 L 128 177.5 L 128.5 175 Z " /><path fill="rgb(197,192,189)" stroke="rgb(197,192,189)" stroke-width="1" opacity="1" d="M 148.5 175 L 149 182.5 L 148 182.5 L 148.5 175 Z " /><path fill="rgb(197,192,189)" stroke="rgb(197,192,189)" stroke-width="1" opacity="1" d="M 175.5 178 L 173.5 181 L 175.5 178 Z " /><path fill="rgb(197,192,189)" stroke="rgb(197,192,189)" stroke-width="1" opacity="1" d="M 115.5 181 L 114.5 183 L 115.5 181 Z " /><path fill="rgb(197,192,189)" stroke="rgb(197,192,189)" stroke-width="1" opacity="1" d="M 161.5 189 L 160.5 191 L 161.5 189 Z " /><path fill="rgb(197,192,189)" stroke="rgb(197,192,189)" stroke-width="1" opacity="1" d="M 68.5 197 L 66.5 200 L 68.5 197 Z " /><path fill="rgb(197,192,189)" stroke="rgb(197,192,189)" stroke-width="1" opacity="1" d="M 153.5 197 L 154 202.5 L 153 202.5 L 153.5 197 Z " /><path fill="rgb(197,192,189)" stroke="rgb(197,192,189)" stroke-width="1" opacity="1" d="M 159.5 197 L 160 203.5 L 159 203.5 L 159.5 197 Z " /><path fill="rgb(197,192,189)" stroke="rgb(197,192,189)" stroke-width="1" opacity="1" d="M 119.5 199 L 118.5 201 L 119.5 199 Z " /><path fill="rgb(197,192,189)" stroke="rgb(197,192,189)" stroke-width="1" opacity="1" d="M 131.5 200 Q 134.5 201.5 131.5 203 L 127 202.5 L 132 201.5 L 131.5 200 Z " /><path fill="rgb(197,192,189)" stroke="rgb(197,192,189)" stroke-width="1" opacity="1" d="M 143.5 200 L 142.5 202 L 143.5 200 Z " /><path fill="rgb(197,192,189)" stroke="rgb(197,192,189)" stroke-width="1" opacity="1" d="M 112.5 201 L 116 201.5 L 112.5 202 L 112.5 201 Z " /><path fill="rgb(197,192,189)" stroke="rgb(197,192,189)" stroke-width="1" opacity="1" d="M 82.5 202 L 83 204.5 L 82 204.5 L 82.5 202 Z " /><path fill="rgb(197,192,189)" stroke="rgb(197,192,189)" stroke-width="1" opacity="1" d="M 87.5 202 L 92 202.5 L 87.5 203 L 87.5 202 Z " /><path fill="rgb(197,192,189)" stroke="rgb(197,192,189)" stroke-width="1" opacity="1" d="M 87.5 204 L 96 204.5 L 87.5 205 L 87.5 204 Z " /><path fill="rgb(197,192,189)" stroke="rgb(197,192,189)" stroke-width="1" opacity="1" d="M 127.5 204 L 136 204.5 L 127.5 205 L 127.5 204 Z " /><path fill="rgb(197,192,189)" stroke="rgb(197,192,189)" stroke-width="1" opacity="1" d="M 154.5 205 L 155.5 207 L 154.5 205 Z " /><path fill="rgb(197,192,189)" stroke="rgb(197,192,189)" stroke-width="1" opacity="1" d="M 66.5 207 L 68.5 210 L 66.5 207 Z " /><path fill="rgb(0,63,99)" stroke="rgb(0,63,99)" stroke-width="1" opacity="1" d="M 84.5 11 L 90 17.5 L 86 15.5 L 87 18.5 L 86 18.5 L 84 13.5 L 84.5 11 Z " /><path fill="rgb(0,63,99)" stroke="rgb(0,63,99)" stroke-width="1" opacity="1" d="M 90.5 19 L 95 27.5 L 94 27.5 L 90.5 19 Z " /><path fill="rgb(0,63,99)" stroke="rgb(0,63,99)" stroke-width="1" opacity="1" d="M 85.5 20 L 84.5 22 L 85.5 20 Z " /><path fill="rgb(0,63,99)" stroke="rgb(0,63,99)" stroke-width="1" opacity="1" d="M 80.5 23 L 79.5 25 Q 72.2 26.7 68.5 32 L 72.5 27 L 80.5 23 Z " /><path fill="rgb(0,63,99)" stroke="rgb(0,63,99)" stroke-width="1" opacity="1" d="M 95.5 29 L 96 31.5 L 95 31.5 L 95.5 29 Z " /><path fill="rgb(0,63,99)" stroke="rgb(0,63,99)" stroke-width="1" opacity="1" d="M 67.5 33 L 69.5 37 L 82.5 36 L 83.5 38 Q 82.3 35.8 77.5 37 Q 75.8 39.8 69.5 38 Q 65.8 36.8 67.5 33 Z " /><path fill="rgb(0,63,99)" stroke="rgb(0,63,99)" stroke-width="1" opacity="1" d="M 96.5 33 L 97 44.5 L 96 44.5 L 96.5 33 Z " /><path fill="rgb(0,63,99)" stroke="rgb(0,63,99)" stroke-width="1" opacity="1" d="M 83.5 42 L 84 43.5 L 81.5 49 L 81 47.5 L 83.5 42 Z " /><path fill="rgb(0,63,99)" stroke="rgb(0,63,99)" stroke-width="1" opacity="1" d="M 80.5 50 L 81 51.5 L 77.5 58 L 77 56.5 L 80.5 50 Z " /><path fill="rgb(0,63,99)" stroke="rgb(0,63,99)" stroke-width="1" opacity="1" d="M 93.5 53 L 94 54.5 L 92.5 57 L 92 55.5 L 93.5 53 Z " /><path fill="rgb(0,63,99)" stroke="rgb(0,63,99)" stroke-width="1" opacity="1" d="M 89.5 63 L 90 70.5 L 89 70.5 L 89.5 63 Z " /><path fill="rgb(0,63,99)" stroke="rgb(0,63,99)" stroke-width="1" opacity="1" d="M 74.5 66 L 75 71.5 L 74 71.5 L 74.5 66 Z " /><path fill="rgb(0,63,99)" stroke="rgb(0,63,99)" stroke-width="1" opacity="1" d="M 90.5 72 Q 92.1 79.9 98 83.5 L 96.5 83 Q 94.3 83.8 95 81.5 L 90 74.5 L 90.5 72 Z " /><path fill="rgb(0,63,99)" stroke="rgb(0,63,99)" stroke-width="1" opacity="1" d="M 74.5 80 L 75 94.5 L 74 94.5 L 74.5 80 Z " /><path fill="rgb(0,63,99)" stroke="rgb(0,63,99)" stroke-width="1" opacity="1" d="M 130.5 80 Q 132.8 79.3 132 81.5 L 134 85 L 130.5 87 L 127.5 87 L 126.5 85 L 130.5 86 L 132 82.5 L 130.5 80 Z " /><path fill="rgb(0,63,99)" stroke="rgb(0,63,99)" stroke-width="1" opacity="1" d="M 134.5 80 L 143 80.5 L 134.5 81 L 134.5 80 Z " /><path fill="rgb(0,63,99)" stroke="rgb(0,63,99)" stroke-width="1" opacity="1" d="M 128 82 Q 131.3 80.9 130 85 Q 126.7 86.1 128 82 Z " /><path fill="rgb(0,63,99)" stroke="rgb(0,63,99)" stroke-width="1" opacity="1" d="M 124.5 83 L 125 85.5 L 124 85.5 L 124.5 83 Z " /><path fill="rgb(0,63,99)" stroke="rgb(0,63,99)" stroke-width="1" opacity="1" d="M 138.5 83 L 139.5 85 L 138.5 83 Z " /><path fill="rgb(0,63,99)" stroke="rgb(0,63,99)" stroke-width="1" opacity="1" d="M 149.5 83 L 154.5 89 L 149.5 83 Z " /><path fill="rgb(0,63,99)" stroke="rgb(0,63,99)" stroke-width="1" opacity="1" d="M 102.5 85 L 106 85.5 L 102 86 Q 101 89.8 103.5 91 L 107 91.5 L 102 92 L 101.5 90 L 100 90.5 L 102.5 85 Z " /><path fill="rgb(0,63,99)" stroke="rgb(0,63,99)" stroke-width="1" opacity="1" d="M 118.5 85 L 119.5 87 L 118.5 85 Z " /><path fill="rgb(0,63,99)" stroke="rgb(0,63,99)" stroke-width="1" opacity="1" d="M 135.5 86 L 137 86.5 L 133.5 88 L 133.5 87 L 135.5 86 Z " /><path fill="rgb(0,63,99)" stroke="rgb(0,63,99)" stroke-width="1" opacity="1" d="M 98.5 87 L 99 89.5 L 96 91.5 L 98.5 87 Z " /><path fill="rgb(0,63,99)" stroke="rgb(0,63,99)" stroke-width="1" opacity="1" d="M 104.5 87 Q 107.5 88.5 104.5 90 Q 101.5 88.5 104.5 87 Z " /><path fill="rgb(0,63,99)" stroke="rgb(0,63,99)" stroke-width="1" opacity="1" d="M 137.5 88 L 137.5 91 Q 134.5 89.5 137.5 88 Z " /><path fill="rgb(0,63,99)" stroke="rgb(0,63,99)" stroke-width="1" opacity="1" d="M 125.5 89 L 128 90.5 L 127.5 94 L 125.5 89 Z " /><path fill="rgb(0,63,99)" stroke="rgb(0,63,99)" stroke-width="1" opacity="1" d="M 116.5 90 L 117.5 92 L 116.5 90 Z " /><path fill="rgb(0,63,99)" stroke="rgb(0,63,99)" stroke-width="1" opacity="1" d="M 155.5 90 L 158 94.5 L 157 94.5 L 155.5 90 Z " /><path fill="rgb(0,63,99)" stroke="rgb(0,63,99)" stroke-width="1" opacity="1" d="M 123 91 Q 126 90 125 93 Q 122 94 123 91 Z " /><path fill="rgb(0,63,99)" stroke="rgb(0,63,99)" stroke-width="1" opacity="1" d="M 133 91 Q 136.7 89.5 136 92.5 Q 134.5 95.5 133 92.5 L 133 91 Z " /><path fill="rgb(0,63,99)" stroke="rgb(0,63,99)" stroke-width="1" opacity="1" d="M 110.5 92 L 110 93.5 L 112 97.5 L 110 98 L 109 93.5 L 110.5 92 Z " /><path fill="rgb(0,63,99)" stroke="rgb(0,63,99)" stroke-width="1" opacity="1" d="M 130.5 92 L 131 96.5 L 130 96.5 L 130.5 92 Z " /><path fill="rgb(0,63,99)" stroke="rgb(0,63,99)" stroke-width="1" opacity="1" d="M 113.5 93 L 114 96 Q 111.3 97.1 112 94.5 L 113.5 93 Z " /><path fill="rgb(0,63,99)" stroke="rgb(0,63,99)" stroke-width="1" opacity="1" d="M 96.5 94 L 97.5 96 L 96.5 94 Z " /><path fill="rgb(0,63,99)" stroke="rgb(0,63,99)" stroke-width="1" opacity="1" d="M 99.5 94 L 103 94.5 L 99.5 95 L 99.5 94 Z " /><path fill="rgb(0,63,99)" stroke="rgb(0,63,99)" stroke-width="1" opacity="1" d="M 116.5 94 L 117 96.5 L 111.5 101 L 111 99 L 116 97 L 116.5 94 Z " /><path fill="rgb(0,63,99)" stroke="rgb(0,63,99)" stroke-width="1" opacity="1" d="M 123.5 95 Q 127.3 94.3 128 96.5 L 126.5 96 Q 122.5 96.8 123.5 95 Z " /><path fill="rgb(0,63,99)" stroke="rgb(0,63,99)" stroke-width="1" opacity="1" d="M 132 95 L 136 95.5 L 133 96 L 131.5 99 L 132 97.5 L 132 95 Z " /><path fill="rgb(0,63,99)" stroke="rgb(0,63,99)" stroke-width="1" opacity="1" d="M 99.5 96 Q 98.9 100.6 101.5 102 L 104 102.5 L 101.5 103 Q 97.5 101.5 99.5 96 Z " /><path fill="rgb(0,63,99)" stroke="rgb(0,63,99)" stroke-width="1" opacity="1" d="M 158.5 96 L 159 98.5 L 158 98.5 L 158.5 96 Z " /><path fill="rgb(0,63,99)" stroke="rgb(0,63,99)" stroke-width="1" opacity="1" d="M 75.5 97 L 76 102.5 L 75 102.5 L 75.5 97 Z " /><path fill="rgb(0,63,99)" stroke="rgb(0,63,99)" stroke-width="1" opacity="1" d="M 102 98 Q 105 97 104 100 Q 101 101 102 98 Z " /><path fill="rgb(0,63,99)" stroke="rgb(0,63,99)" stroke-width="1" opacity="1" d="M 107.5 98 L 108 100.5 L 107 100.5 L 107.5 98 Z " /><path fill="rgb(0,63,99)" stroke="rgb(0,63,99)" stroke-width="1" opacity="1" d="M 123.5 98 L 127 99.5 L 125.5 100 L 123.5 98 Z " /><path fill="rgb(0,63,99)" stroke="rgb(0,63,99)" stroke-width="1" opacity="1" d="M 117.5 99 L 117 100.5 Q 117.8 102.8 115.5 102 L 117.5 99 Z " /><path fill="rgb(0,63,99)" stroke="rgb(0,63,99)" stroke-width="1" opacity="1" d="M 159.5 100 L 160 108.5 L 159 108.5 L 159.5 100 Z " /><path fill="rgb(0,63,99)" stroke="rgb(0,63,99)" stroke-width="1" opacity="1" d="M 120 101 Q 123 99.8 122 103.5 L 120 102.5 L 120 101 Z " /><path fill="rgb(0,63,99)" stroke="rgb(0,63,99)" stroke-width="1" opacity="1" d="M 124.5 101 L 125 103.5 Q 124.3 106.8 119.5 106 L 117.5 103 Q 118.3 105.8 122.5 105 L 124.5 101 Z " /><path fill="rgb(0,63,99)" stroke="rgb(0,63,99)" stroke-width="1" opacity="1" d="M 112.5 102 L 113 103.5 L 110 105.5 L 112.5 102 Z " /><path fill="rgb(0,63,99)" stroke="rgb(0,63,99)" stroke-width="1" opacity="1" d="M 106.5 103 L 109 104.5 L 107.5 105 L 106.5 103 Z " /><path fill="rgb(0,63,99)" stroke="rgb(0,63,99)" stroke-width="1" opacity="1" d="M 76.5 106 L 78 111.5 L 77 111.5 L 76.5 106 Z " /><path fill="rgb(0,63,99)" stroke="rgb(0,63,99)" stroke-width="1" opacity="1" d="M 158.5 111 L 159 112.5 L 157.5 115 L 157 113.5 L 158.5 111 Z " /><path fill="rgb(0,63,99)" stroke="rgb(0,63,99)" stroke-width="1" opacity="1" d="M 78.5 113 L 82 119.5 L 83 130.5 L 82 130.5 Q 82.1 118.8 78.5 113 Z " /><path fill="rgb(0,63,99)" stroke="rgb(0,63,99)" stroke-width="1" opacity="1" d="M 156.5 116 L 154.5 119 L 156.5 116 Z " /><path fill="rgb(0,63,99)" stroke="rgb(0,63,99)" stroke-width="1" opacity="1" d="M 153.5 120 L 153 121.5 Q 149.7 126.7 150.5 136 L 150 126.5 L 153.5 120 Z " /><path fill="rgb(0,63,99)" stroke="rgb(0,63,99)" stroke-width="1" opacity="1" d="M 98.5 121 L 99.5 123 L 98.5 121 Z " /><path fill="rgb(0,63,99)" stroke="rgb(0,63,99)" stroke-width="1" opacity="1" d="M 135.5 122 Q 135.6 127.4 139 129.5 L 136 127.5 L 135.5 122 Z " /><path fill="rgb(0,63,99)" stroke="rgb(0,63,99)" stroke-width="1" opacity="1" d="M 96.5 123 L 97 124.5 L 95.5 127 L 95 125.5 L 96.5 123 Z " /><path fill="rgb(0,63,99)" stroke="rgb(0,63,99)" stroke-width="1" opacity="1" d="M 128.5 123 L 130 123.5 L 126.5 125 L 126.5 124 L 128.5 123 Z " /><path fill="rgb(0,63,99)" stroke="rgb(0,63,99)" stroke-width="1" opacity="1" d="M 106.5 125 L 109 125.5 L 106.5 126 L 106.5 125 Z " /><path fill="rgb(0,63,99)" stroke="rgb(0,63,99)" stroke-width="1" opacity="1" d="M 121.5 125 L 125 125.5 L 121.5 126 L 121.5 125 Z " /><path fill="rgb(0,63,99)" stroke="rgb(0,63,99)" stroke-width="1" opacity="1" d="M 111.5 126 L 119 126.5 L 111.5 127 L 111.5 126 Z " /><path fill="rgb(0,63,99)" stroke="rgb(0,63,99)" stroke-width="1" opacity="1" d="M 94.5 128 L 95 129.5 L 91.5 137 L 91 135.5 L 94.5 128 Z " /><path fill="rgb(0,63,99)" stroke="rgb(0,63,99)" stroke-width="1" opacity="1" d="M 83.5 132 L 85 140.5 L 84 140.5 L 83.5 132 Z " /><path fill="rgb(0,63,99)" stroke="rgb(0,63,99)" stroke-width="1" opacity="1" d="M 140.5 132 Q 143.8 133.8 144 138.5 L 143 138.5 L 140.5 132 Z " /><path fill="rgb(0,63,99)" stroke="rgb(0,63,99)" stroke-width="1" opacity="1" d="M 90.5 138 L 91 140.5 L 90 140.5 L 90.5 138 Z " /><path fill="rgb(0,63,99)" stroke="rgb(0,63,99)" stroke-width="1" opacity="1" d="M 149.5 138 L 150 140.5 L 149 140.5 L 149.5 138 Z " /><path fill="rgb(0,63,99)" stroke="rgb(0,63,99)" stroke-width="1" opacity="1" d="M 144.5 140 L 145 149.5 L 144 149.5 L 144.5 140 Z " /><path fill="rgb(0,63,99)" stroke="rgb(0,63,99)" stroke-width="1" opacity="1" d="M 148.5 142 L 149 144.5 L 148 144.5 L 148.5 142 Z " /><path fill="rgb(0,63,99)" stroke="rgb(0,63,99)" stroke-width="1" opacity="1" d="M 89.5 143 L 90 148.5 L 89 148.5 L 89.5 143 Z " /><path fill="rgb(0,63,99)" stroke="rgb(0,63,99)" stroke-width="1" opacity="1" d="M 86.5 145 L 87 151.5 L 86 151.5 L 86.5 145 Z " /><path fill="rgb(0,63,99)" stroke="rgb(0,63,99)" stroke-width="1" opacity="1" d="M 147.5 146 L 148 150.5 L 147 150.5 L 147.5 146 Z " /><path fill="rgb(0,63,99)" stroke="rgb(0,63,99)" stroke-width="1" opacity="1" d="M 90.5 151 L 91 157.5 L 89 158.5 L 90.5 151 Z " /><path fill="rgb(0,63,99)" stroke="rgb(0,63,99)" stroke-width="1" opacity="1" d="M 146.5 153 L 147 157.5 L 145 158.5 L 146.5 153 Z " /><path fill="rgb(0,63,99)" stroke="rgb(0,63,99)" stroke-width="1" opacity="1" d="M 84.5 155 L 85 156.5 L 84 159 L 88 159.5 L 83 160 L 84.5 155 Z " /><path fill="rgb(0,63,99)" stroke="rgb(0,63,99)" stroke-width="1" opacity="1" d="M 141.5 156 L 141.5 158 Q 144.8 156.9 144 159.5 L 142.5 159 Q 139.2 160.1 140 157.5 L 141.5 156 Z " /><path fill="rgb(202,70,75)" stroke="rgb(202,70,75)" stroke-width="1" opacity="1" d="M 55.5 162 L 56 164.5 L 61 173.5 L 60.5 175 L 62 175.5 L 61.5 177 L 63 177.5 L 62.5 179 L 64 179.5 L 63 182 L 60 181.5 L 60.5 180 Q 57.3 177.7 50.5 179 L 48 180.5 L 48.5 182 L 44 181.5 L 46 180.5 L 45.5 179 L 47 178.5 L 46.5 177 L 48 176.5 L 47.5 175 L 49 174.5 L 48.5 173 L 50 172.5 L 49.5 171 Q 51.8 171.8 51 169.5 L 55.5 162 Z M 55 170 L 52 173 L 52 175 L 56 176 L 57 174 L 57 172 L 55 170 Z " /><path fill="rgb(202,70,75)" stroke="rgb(202,70,75)" stroke-width="1" opacity="1" d="M 152.5 162 Q 156.9 160.5 156 163.5 L 154 163.5 L 153.5 165 L 151.5 164 L 150 164.5 L 152.5 162 Z " /><path fill="rgb(202,70,75)" stroke="rgb(202,70,75)" stroke-width="1" opacity="1" d="M 83.5 165 L 86 165.5 L 85 168.5 L 88 170 L 85 174.5 L 85 181.5 L 85.5 183 L 83 182.5 L 83 180.5 Q 84.7 173.8 81.5 172 L 80 171.5 L 83 169.5 L 84 166.5 L 83.5 165 Z " /><path fill="rgb(202,70,75)" stroke="rgb(202,70,75)" stroke-width="1" opacity="1" d="M 72.5 170 L 75.5 171 L 77 171.5 Q 75.6 174.1 71 173.5 L 71.5 175 Q 68.5 174.5 70 181.5 L 69 181.5 L 69 171.5 L 70.5 171 L 72 171.5 L 72.5 170 Z " /><path fill="rgb(202,70,75)" stroke="rgb(202,70,75)" stroke-width="1" opacity="1" d="M 94.5 170 L 96.5 171 L 98.5 170 L 101 170.5 L 102.5 173 L 104 173.5 L 103 176 L 95.5 176 L 95 177.5 L 94.5 179 L 99 181 Q 98 178 101 179 L 102 181.5 L 100 181.5 L 99.5 183 L 97.5 182 L 95 183 L 92.5 179 L 91 178.5 L 92 175.5 L 92 173.5 L 94.5 170 Z M 100 172 L 97 173 L 96 175 L 102 175 L 100 174 L 100 172 Z " /><path fill="rgb(202,70,75)" stroke="rgb(202,70,75)" stroke-width="1" opacity="1" d="M 108.5 170 L 111.5 171 L 114.5 170 L 115 171.5 Q 113.7 174.3 112.5 172 L 109 173.5 L 111 174 L 111.5 176 Q 113.2 173.2 115 177.5 L 113.5 183 L 110.5 182 Q 108.7 184.7 107 180.5 Q 106.3 177.9 109 179 Q 107.9 181.7 110.5 181 L 114 179.5 Q 114.8 177.3 112.5 178 Q 110.7 174.9 109 176.5 L 108.5 175 L 107 175.5 L 108 172.5 Q 105.8 171.3 108.5 170 Z " /><path fill="rgb(202,70,75)" stroke="rgb(202,70,75)" stroke-width="1" opacity="1" d="M 122.5 170 L 126.5 171 L 128 170.5 L 128.5 172 L 131 171 L 131 181.5 L 132 182.5 L 130.5 183 L 127.5 182 L 125.5 182 L 123.5 183 L 118 177.5 L 118 175.5 L 120.5 171 L 122.5 170 Z M 124 172 Q 124 175 122 174 L 122 176 L 121 178 Q 122 182 127 181 L 130 177 Q 131 174 128 175 L 128 173 L 124 172 Z " /><path fill="rgb(202,70,75)" stroke="rgb(202,70,75)" stroke-width="1" opacity="1" d="M 136.5 170 L 138.5 172 Q 140 168.5 141.5 171 L 144.5 170 L 146.5 173 L 148 173.5 Q 145.3 175.3 147 181.5 L 147.5 183 L 145 182.5 Q 147.5 181 146 175.5 L 145 173 L 138 174 L 138 180.5 L 137 181.5 L 137.5 183 L 135 182.5 L 136 181.5 L 136.5 170 Z " /><path fill="rgb(202,70,75)" stroke="rgb(202,70,75)" stroke-width="1" opacity="1" d="M 151 170 L 154 170.5 L 154 180.5 L 153.5 183 L 151 182.5 L 151 170 Z " /><path fill="rgb(202,70,75)" stroke="rgb(202,70,75)" stroke-width="1" opacity="1" d="M 161.5 170 L 165.5 171 L 167 170.5 L 167.5 172 L 170 170.5 L 170 181.5 L 171 182.5 L 169.5 183 L 166.5 181 L 165.5 183 L 162.5 182 L 161 182.5 L 160.5 181 Q 159.3 183.3 158 180.5 L 158.5 179 L 157 178.5 L 158 175.5 L 157.5 174 L 159 173.5 Q 156.8 172.3 159.5 171 L 161.5 170 Z M 163 172 Q 163 175 161 174 L 161 176 L 160 179 L 164 181 L 166 181 Q 165 178 168 179 L 168 176 L 163 172 Z " /><path fill="rgb(202,70,75)" stroke="rgb(202,70,75)" stroke-width="1" opacity="1" d="M 176.5 170 L 180.5 171 L 182 170.5 L 183 172.5 L 179.5 172 L 177 173.5 L 178 176 L 180.5 175 L 181.5 177 L 183 176.5 L 182.5 178 Q 184.8 177.3 184 179.5 L 183 182 L 180.5 183 L 178.5 182 L 176 183 L 175.5 181 L 174 181.5 L 176.5 180 L 178.5 180 Q 180.8 180.8 180 178.5 Q 178 174.8 176 176.5 Q 176.7 173.9 174 175 L 174 172 Q 176.8 173 176.5 170 Z " /><path fill="rgb(200,58,63)" stroke="rgb(200,58,63)" stroke-width="1" opacity="1" d="M 154.5 161 L 157 162.5 L 155.5 162 L 154.5 161 Z " /><path fill="rgb(200,58,63)" stroke="rgb(200,58,63)" stroke-width="1" opacity="1" d="M 54.5 162 L 55.5 164 L 54.5 162 Z " /><path fill="rgb(200,58,63)" stroke="rgb(200,58,63)" stroke-width="1" opacity="1" d="M 85.5 166 L 86 168.5 L 85 168.5 L 85.5 166 Z " /><path fill="rgb(200,58,63)" stroke="rgb(200,58,63)" stroke-width="1" opacity="1" d="M 68 170 L 70 170.5 L 69 171.5 L 68.5 182 L 68 170 Z " /><path fill="rgb(200,58,63)" stroke="rgb(200,58,63)" stroke-width="1" opacity="1" d="M 88.5 170 L 89 173 L 87 172.5 L 88.5 170 Z " /><path fill="rgb(200,58,63)" stroke="rgb(200,58,63)" stroke-width="1" opacity="1" d="M 111.5 170 L 114 170.5 L 111.5 171 L 111.5 170 Z " /><path fill="rgb(200,58,63)" stroke="rgb(200,58,63)" stroke-width="1" opacity="1" d="M 123.5 170 L 127 170.5 L 123.5 171 L 123.5 170 Z " /><path fill="rgb(200,58,63)" stroke="rgb(200,58,63)" stroke-width="1" opacity="1" d="M 130.5 170 L 132 170.5 L 132 181.5 L 131 181.5 L 131 171.5 L 130.5 170 Z " /><path fill="rgb(200,58,63)" stroke="rgb(200,58,63)" stroke-width="1" opacity="1" d="M 135.5 170 L 136 181.5 L 135 181.5 L 135.5 170 Z " /><path fill="rgb(200,58,63)" stroke="rgb(200,58,63)" stroke-width="1" opacity="1" d="M 137.5 170 L 138.5 172 L 137.5 170 Z " /><path fill="rgb(200,58,63)" stroke="rgb(200,58,63)" stroke-width="1" opacity="1" d="M 141.5 170 L 144 170.5 L 141.5 171 L 141.5 170 Z " /><path fill="rgb(200,58,63)" stroke="rgb(200,58,63)" stroke-width="1" opacity="1" d="M 163.5 170 L 166 170.5 L 163.5 171 L 163.5 170 Z " /><path fill="rgb(200,58,63)" stroke="rgb(200,58,63)" stroke-width="1" opacity="1" d="M 170.5 170 L 171 181.5 L 170 181.5 L 170.5 170 Z " /><path fill="rgb(200,58,63)" stroke="rgb(200,58,63)" stroke-width="1" opacity="1" d="M 177.5 170 L 181 170.5 L 177.5 171 L 177.5 170 Z " /><path fill="rgb(200,58,63)" stroke="rgb(200,58,63)" stroke-width="1" opacity="1" d="M 53.5 171 L 52.5 173 L 53.5 171 Z " /><path fill="rgb(200,58,63)" stroke="rgb(200,58,63)" stroke-width="1" opacity="1" d="M 101.5 171 L 102.5 173 L 101.5 171 Z " /><path fill="rgb(200,58,63)" stroke="rgb(200,58,63)" stroke-width="1" opacity="1" d="M 115.5 171 L 114.5 173 L 115.5 171 Z " /><path fill="rgb(200,58,63)" stroke="rgb(200,58,63)" stroke-width="1" opacity="1" d="M 145.5 171 L 146.5 173 L 145.5 171 Z " /><path fill="rgb(200,58,63)" stroke="rgb(200,58,63)" stroke-width="1" opacity="1" d="M 182.5 171 L 181.5 173 L 182.5 171 Z " /><path fill="rgb(200,58,63)" stroke="rgb(200,58,63)" stroke-width="1" opacity="1" d="M 107.5 172 L 109 175.5 L 107 174.5 L 107.5 172 Z " /><path fill="rgb(200,58,63)" stroke="rgb(200,58,63)" stroke-width="1" opacity="1" d="M 85.5 174 L 86 181.5 L 85 181.5 L 85.5 174 Z " /><path fill="rgb(200,58,63)" stroke="rgb(200,58,63)" stroke-width="1" opacity="1" d="M 103.5 174 L 104 177 L 95 176.5 L 103 176 L 103.5 174 Z " /><path fill="rgb(200,58,63)" stroke="rgb(200,58,63)" stroke-width="1" opacity="1" d="M 147.5 174 L 148 181.5 L 147 181.5 L 147.5 174 Z " /><path fill="rgb(200,58,63)" stroke="rgb(200,58,63)" stroke-width="1" opacity="1" d="M 53.5 175 L 56 175.5 L 53.5 176 L 53.5 175 Z " /><path fill="rgb(200,58,63)" stroke="rgb(200,58,63)" stroke-width="1" opacity="1" d="M 70.5 175 L 71 181.5 L 70 181.5 L 70.5 175 Z " /><path fill="rgb(200,58,63)" stroke="rgb(200,58,63)" stroke-width="1" opacity="1" d="M 91.5 175 L 92 177.5 L 91 177.5 L 91.5 175 Z " /><path fill="rgb(200,58,63)" stroke="rgb(200,58,63)" stroke-width="1" opacity="1" d="M 111.5 175 L 110.5 177 L 111.5 175 Z " /><path fill="rgb(200,58,63)" stroke="rgb(200,58,63)" stroke-width="1" opacity="1" d="M 145.5 175 L 146 181.5 L 145 181.5 L 145.5 175 Z " /><path fill="rgb(200,58,63)" stroke="rgb(200,58,63)" stroke-width="1" opacity="1" d="M 157.5 175 L 158 177.5 L 157 177.5 L 157.5 175 Z " /><path fill="rgb(200,58,63)" stroke="rgb(200,58,63)" stroke-width="1" opacity="1" d="M 178.5 175 L 180 175.5 L 177.5 177 L 178.5 175 Z " /><path fill="rgb(200,58,63)" stroke="rgb(200,58,63)" stroke-width="1" opacity="1" d="M 114.5 176 Q 116.8 176.8 116 180.5 L 114 181.5 L 115 177.5 L 114.5 176 Z " /><path fill="rgb(200,58,63)" stroke="rgb(200,58,63)" stroke-width="1" opacity="1" d="M 181.5 176 L 182.5 178 L 181.5 176 Z " /><path fill="rgb(200,58,63)" stroke="rgb(200,58,63)" stroke-width="1" opacity="1" d="M 113.5 178 L 114 179.5 L 112 180.5 L 113.5 178 Z " /><path fill="rgb(200,58,63)" stroke="rgb(200,58,63)" stroke-width="1" opacity="1" d="M 160.5 178 L 161.5 180 L 160.5 178 Z " /><path fill="rgb(200,58,63)" stroke="rgb(200,58,63)" stroke-width="1" opacity="1" d="M 92.5 179 L 94.5 182 L 92.5 179 Z " /><path fill="rgb(200,58,63)" stroke="rgb(200,58,63)" stroke-width="1" opacity="1" d="M 119.5 179 L 121.5 182 L 119.5 179 Z " /><path fill="rgb(200,58,63)" stroke="rgb(200,58,63)" stroke-width="1" opacity="1" d="M 158.5 179 L 160.5 182 L 158.5 179 Z " /><path fill="rgb(200,58,63)" stroke="rgb(200,58,63)" stroke-width="1" opacity="1" d="M 175.5 179 L 175.5 182 Q 172.5 180.5 175.5 179 Z " /><path fill="rgb(200,58,63)" stroke="rgb(200,58,63)" stroke-width="1" opacity="1" d="M 101.5 180 L 100.5 182 L 101.5 180 Z " /><path fill="rgb(200,58,63)" stroke="rgb(200,58,63)" stroke-width="1" opacity="1" d="M 106.5 180 L 107.5 182 L 106.5 180 Z " /><path fill="rgb(200,58,63)" stroke="rgb(200,58,63)" stroke-width="1" opacity="1" d="M 124.5 180 L 127 180.5 L 124.5 181 L 124.5 180 Z " /><path fill="rgb(200,58,63)" stroke="rgb(200,58,63)" stroke-width="1" opacity="1" d="M 163.5 180 L 167 181.5 L 165.5 181 Q 162.5 181.5 163.5 180 Z " /><path fill="rgb(200,58,63)" stroke="rgb(200,58,63)" stroke-width="1" opacity="1" d="M 110.5 182 L 113 182.5 L 110.5 183 L 110.5 182 Z " /><path fill="rgb(200,58,63)" stroke="rgb(200,58,63)" stroke-width="1" opacity="1" d="M 162.5 182 L 165 182.5 L 162.5 183 L 162.5 182 Z " /><path fill="rgb(214,156,54)" stroke="rgb(214,156,54)" stroke-width="1" opacity="1" d="M 154.5 170 L 155 182.5 L 154 182.5 L 154.5 170 Z " /><path fill="rgb(214,156,54)" stroke="rgb(214,156,54)" stroke-width="1" opacity="1" d="M 182.5 170 L 183.5 172 L 182.5 170 Z " /><path fill="rgb(214,156,54)" stroke="rgb(214,156,54)" stroke-width="1" opacity="1" d="M 178.5 172 L 177.5 174 L 178.5 172 Z " /><path fill="rgb(214,156,54)" stroke="rgb(214,156,54)" stroke-width="1" opacity="1" d="M 138.5 175 L 139 181.5 L 138 181.5 L 138.5 175 Z " /><path fill="rgb(214,156,54)" stroke="rgb(214,156,54)" stroke-width="1" opacity="1" d="M 122.5 178 L 123.5 180 L 122.5 178 Z " /><path fill="rgb(214,156,54)" stroke="rgb(214,156,54)" stroke-width="1" opacity="1" d="M 92.5 180 L 93.5 182 L 92.5 180 Z " /><path fill="rgb(214,156,54)" stroke="rgb(214,156,54)" stroke-width="1" opacity="1" d="M 44.5 182 L 48 182.5 L 44.5 183 L 44.5 182 Z " /><path fill="rgb(214,156,54)" stroke="rgb(214,156,54)" stroke-width="1" opacity="1" d="M 61.5 182 L 65 182.5 L 61.5 183 L 61.5 182 Z " /><path fill="rgb(214,156,54)" stroke="rgb(214,156,54)" stroke-width="1" opacity="1" d="M 68.5 182 L 71 182.5 L 68.5 183 L 68.5 182 Z " /><path fill="rgb(214,156,54)" stroke="rgb(214,156,54)" stroke-width="1" opacity="1" d="M 77 188 L 80 188.5 L 80 210 L 75.5 209 Q 74.3 211.3 69.5 210 Q 65.5 208 65 202.5 L 69.5 197 Q 74.9 196.4 77 198 L 77 188 Z M 70 200 L 69 205 Q 70 208 74 207 Q 77 207 76 203 Q 75 199 70 200 Z " /><path fill="rgb(214,156,54)" stroke="rgb(214,156,54)" stroke-width="1" opacity="1" d="M 157.5 188 L 161 189.5 L 155.5 193 L 154 191.5 L 157.5 188 Z " /><path fill="rgb(214,156,54)" stroke="rgb(214,156,54)" stroke-width="1" opacity="1" d="M 108 189 Q 116.7 187.1 120 191.5 L 121 197.5 Q 119.2 202.5 112 201 L 112 210 L 108 210 L 108 189 Z M 112 193 Q 111 197 114 198 L 116 197 Q 118 198 117 195 Q 116 192 112 193 Z " /><path fill="rgb(214,156,54)" stroke="rgb(214,156,54)" stroke-width="1" opacity="1" d="M 86.5 197 Q 93.5 195.5 95 199.5 L 96 204 L 87.5 204 L 87 205.5 L 90.5 207 L 92.5 207 Q 95.1 206.3 94 209 L 87.5 210 L 83 206.5 Q 81.5 198.5 86.5 197 Z M 87 200 L 87 203 L 92 203 L 92 200 L 87 200 Z " /><path fill="rgb(214,156,54)" stroke="rgb(214,156,54)" stroke-width="1" opacity="1" d="M 126.5 197 Q 134.5 195.5 136 200.5 L 136 204 L 127.5 204 L 127 205.5 L 130.5 207 L 132.5 207 Q 135.1 206.3 134 209 L 127.5 210 L 124 207.5 L 123 201.5 L 126.5 197 Z M 129 200 L 127 203 Q 132 204 133 202 Q 132 199 129 200 Z " /><path fill="rgb(214,156,54)" stroke="rgb(214,156,54)" stroke-width="1" opacity="1" d="M 138 197 L 142.5 198 L 147.5 197 L 147 198.5 Q 147.9 201.5 143.5 200 L 142 201.5 L 142 210 L 138 208.5 L 138 197 Z " /><path fill="rgb(214,156,54)" stroke="rgb(214,156,54)" stroke-width="1" opacity="1" d="M 150 197 Q 155.3 195.2 153 202.5 L 155.5 207 L 159 205.5 L 160 197 L 163 197 L 163 205.5 L 160.5 209 L 154.5 210 L 151 207.5 L 150 197 Z " /></svg>